M48
; DRILL file {KiCad 7.0.5} date Thu Jul  6 17:45:54 2023
; FORMAT={-:-/ absolute / inch / decimal}
; #@! TF.CreationDate,2023-07-06T17:45:54-04:00
; #@! TF.GenerationSoftware,Kicad,Pcbnew,7.0.5
; #@! TF.FileFunction,NonPlated,1,2,NPTH
FMAT,2
INCH
; #@! TA.AperFunction,NonPlated,NPTH,ComponentDrill
T1C0.0689
; #@! TA.AperFunction,NonPlated,NPTH,ComponentDrill
T2C0.1200
; #@! TA.AperFunction,NonPlated,NPTH,ComponentDrill
T3C0.1570
%
G90
G05
T1
X6.3088Y-6.3721
X6.3088Y-7.1288
X6.4039Y-10.1533
X6.4968Y-7.8854
X6.5909Y-8.6415
X6.7088Y-6.3721
X6.7088Y-7.1288
X6.7785Y-9.3976
X6.8039Y-10.1533
X6.8968Y-7.8854
X6.9909Y-8.6415
X7.0654Y-6.3721
X7.0654Y-7.1288
X7.1785Y-9.3976
X7.3522Y-10.1533
X7.4413Y-7.8854
X7.4654Y-6.3721
X7.4654Y-7.1288
X7.63Y-8.6415
X7.7522Y-10.1533
X7.8221Y-6.3721
X7.8221Y-7.1288
X7.8413Y-7.8854
X8.0027Y-9.3982
X8.03Y-8.6415
X8.1984Y-7.8854
X8.2221Y-6.3721
X8.2221Y-7.1288
X8.3006Y-10.1533
X8.3879Y-8.6415
X8.4027Y-9.3982
X8.5787Y-6.3721
X8.5787Y-7.1288
X8.5984Y-7.8854
X8.7006Y-10.1533
X8.7605Y-9.3978
X8.7879Y-8.6415
X8.9555Y-7.8854
X8.9787Y-6.3721
X8.9787Y-7.1288
X9.1458Y-8.6415
X9.1605Y-9.3978
X9.3354Y-6.3721
X9.3354Y-7.1288
X9.3555Y-7.8854
X9.5183Y-9.3978
X9.5458Y-8.6415
X9.7125Y-7.8854
X9.7354Y-6.3721
X9.7354Y-7.1288
X9.9037Y-8.6415
X9.9183Y-9.3978
X10.092Y-6.3721
X10.092Y-7.1288
X10.1125Y-7.8854
X10.2761Y-9.3978
X10.3037Y-8.6415
X10.4696Y-7.8854
X10.492Y-6.3721
X10.492Y-7.1288
X10.6616Y-8.6415
X10.6761Y-9.3978
X10.8486Y-6.3721
X10.8486Y-7.1288
X10.8696Y-7.8854
X11.0339Y-9.3978
X11.0616Y-8.6415
X11.1239Y-10.1533
X11.2267Y-7.8854
X11.2486Y-6.3721
X11.2486Y-7.1288
X11.4195Y-8.6415
X11.4339Y-9.3978
X11.5239Y-10.1533
X11.6053Y-6.3721
X11.6053Y-7.1288
X11.6267Y-7.8854
X11.7917Y-9.3978
X11.8195Y-8.6415
X11.9837Y-7.8854
X12.0053Y-6.3721
X12.0053Y-7.1288
X12.1774Y-8.6415
X12.1917Y-9.3978
X12.3619Y-6.3721
X12.3619Y-7.1288
X12.3837Y-7.8854
X12.5495Y-9.3978
X12.5774Y-8.6415
X12.7408Y-7.8854
X12.7619Y-6.3721
X12.7619Y-7.1288
X12.9353Y-8.6415
X12.9495Y-9.3978
X13.1186Y-6.3721
X13.1186Y-7.1288
X13.1408Y-7.8854
X13.3073Y-9.3978
X13.3353Y-8.6415
X13.4979Y-7.8854
X13.5186Y-6.3721
X13.5186Y-7.1288
X13.6932Y-8.6415
X13.7073Y-9.3978
X13.8535Y-10.1533
X13.8752Y-6.3721
X13.8752Y-7.1288
X13.8979Y-7.8854
X14.0651Y-9.3978
X14.0932Y-8.6415
X14.2535Y-10.1533
X14.2549Y-7.8854
X14.2752Y-6.3721
X14.2752Y-7.1288
X14.4511Y-8.6415
X14.4651Y-9.3978
X14.6144Y-10.1533
X14.6319Y-6.3721
X14.6319Y-7.1288
X14.6549Y-7.8854
X14.8229Y-9.3978
X14.8511Y-8.6415
X15.012Y-7.8854
X15.0144Y-10.1533
X15.0319Y-6.3721
X15.0319Y-7.1288
X15.209Y-8.6415
X15.2229Y-9.3978
X15.3752Y-10.1533
X15.3885Y-6.3721
X15.3885Y-7.1288
X15.412Y-7.8854
X15.609Y-8.6415
X15.7691Y-7.8854
X15.7752Y-10.1533
X15.7885Y-6.3721
X15.7885Y-7.1288
X15.8604Y-9.3978
X16.1361Y-10.1533
X16.1451Y-6.3721
X16.1691Y-7.8854
X16.2604Y-9.3978
X16.4326Y-8.6417
X16.5233Y-7.1285
X16.5361Y-10.1533
X16.5451Y-6.3721
X16.7136Y-7.8854
X16.8326Y-8.6417
X16.8969Y-10.1533
X16.8994Y-9.3978
X16.9018Y-6.3721
X16.9233Y-7.1285
X17.1136Y-7.8854
X17.2969Y-10.1533
X17.2994Y-9.3978
X17.3018Y-6.3721
X17.6572Y-9.3978
X17.6578Y-7.1287
X17.6578Y-8.6419
X17.6578Y-10.1533
X17.6582Y-7.8854
X17.6584Y-6.3721
X18.0572Y-9.3978
X18.0578Y-7.1287
X18.0578Y-8.6419
X18.0578Y-10.1533
X18.0582Y-7.8854
X18.0584Y-6.3721
T2
X6.5098Y-9.1226
X7.4473Y-9.1226
X9.3552Y-9.8783
X13.2927Y-9.8783
X16.1638Y-8.3667
X16.2546Y-6.8535
X17.1013Y-8.3667
X17.1921Y-6.8535
T3
X6.5088Y-6.3721
X6.5088Y-7.1288
X6.5098Y-9.7226
X6.6039Y-10.1533
X6.6968Y-7.8854
X6.7909Y-8.6415
X6.9785Y-9.3976
X7.2654Y-6.3721
X7.2654Y-7.1288
X7.4473Y-9.7226
X7.5522Y-10.1533
X7.6413Y-7.8854
X7.83Y-8.6415
X8.0221Y-6.3721
X8.0221Y-7.1288
X8.2027Y-9.3982
X8.3984Y-7.8854
X8.5006Y-10.1533
X8.5879Y-8.6415
X8.7787Y-6.3721
X8.7787Y-7.1288
X8.9605Y-9.3978
X9.1555Y-7.8854
X9.3458Y-8.6415
X9.3552Y-10.4783
X9.5354Y-6.3721
X9.5354Y-7.1288
X9.7183Y-9.3978
X9.9125Y-7.8854
X10.1037Y-8.6415
X10.292Y-6.3721
X10.292Y-7.1288
X10.4761Y-9.3978
X10.6696Y-7.8854
X10.8616Y-8.6415
X11.0486Y-6.3721
X11.0486Y-7.1288
X11.2339Y-9.3978
X11.3239Y-10.1533
X11.4267Y-7.8854
X11.6195Y-8.6415
X11.8053Y-6.3721
X11.8053Y-7.1288
X11.9917Y-9.3978
X12.1837Y-7.8854
X12.3774Y-8.6415
X12.5619Y-6.3721
X12.5619Y-7.1288
X12.7495Y-9.3978
X12.9408Y-7.8854
X13.1353Y-8.6415
X13.2927Y-10.4783
X13.3186Y-6.3721
X13.3186Y-7.1288
X13.5073Y-9.3978
X13.6979Y-7.8854
X13.8932Y-8.6415
X14.0535Y-10.1533
X14.0752Y-6.3721
X14.0752Y-7.1288
X14.2651Y-9.3978
X14.4549Y-7.8854
X14.6511Y-8.6415
X14.8144Y-10.1533
X14.8319Y-6.3721
X14.8319Y-7.1288
X15.0229Y-9.3978
X15.212Y-7.8854
X15.409Y-8.6415
X15.5752Y-10.1533
X15.5885Y-6.3721
X15.5885Y-7.1288
X15.9691Y-7.8854
X16.0604Y-9.3978
X16.1638Y-8.9667
X16.2546Y-7.4535
X16.3361Y-10.1533
X16.3451Y-6.3721
X16.6326Y-8.6417
X16.7233Y-7.1285
X16.9136Y-7.8854
X17.0969Y-10.1533
X17.0994Y-9.3978
X17.1013Y-8.9667
X17.1018Y-6.3721
X17.1921Y-7.4535
X17.8572Y-9.3978
X17.8578Y-7.1287
X17.8578Y-8.6419
X17.8578Y-10.1533
X17.8582Y-7.8854
X17.8584Y-6.3721
T0
M30
