G04 #@! TF.GenerationSoftware,KiCad,Pcbnew,7.0.5*
G04 #@! TF.CreationDate,2023-07-06T17:45:40-04:00*
G04 #@! TF.ProjectId,keyboard,6b657962-6f61-4726-942e-6b696361645f,rev?*
G04 #@! TF.SameCoordinates,Original*
G04 #@! TF.FileFunction,Profile,NP*
%FSLAX46Y46*%
G04 Gerber Fmt 4.6, Leading zero omitted, Abs format (unit mm)*
G04 Created by KiCad (PCBNEW 7.0.5) date 2023-07-06 17:45:40*
%MOMM*%
%LPD*%
G01*
G04 APERTURE LIST*
G04 #@! TA.AperFunction,Profile*
%ADD10C,0.100000*%
G04 #@! TD*
G04 APERTURE END LIST*
D10*
X113089286Y-139687500D02*
X475714286Y-139687500D01*
X475714286Y-279862500D01*
X113089286Y-279862500D01*
X113089286Y-139687500D01*
X327148037Y-262262157D02*
X327148037Y-263667841D01*
X328053584Y-264464999D02*
X329642488Y-264464999D01*
X329642488Y-261465000D02*
X328053583Y-261465000D01*
X330548035Y-263667841D02*
X330548035Y-262262157D01*
X327148036Y-262262156D02*
G75*
G03*
X327098551Y-262045279I-499989J1D01*
G01*
X327801325Y-261396701D02*
G75*
G03*
X327098553Y-262045279I-252258J-431700D01*
G01*
X327098552Y-263884719D02*
G75*
G03*
X327148037Y-263667841I-450505J216876D01*
G01*
X327098553Y-263884718D02*
G75*
G03*
X327801325Y-264533298I450513J-216880D01*
G01*
X328053584Y-264464999D02*
G75*
G03*
X327801325Y-264533298I2J-500009D01*
G01*
X327801325Y-261396701D02*
G75*
G03*
X328053583Y-261465000I252261J431710D01*
G01*
X329894746Y-264533297D02*
G75*
G03*
X329642488Y-264464999I-252260J-431713D01*
G01*
X329642489Y-261464999D02*
G75*
G03*
X329894747Y-261396700I-3J500009D01*
G01*
X330597520Y-262045279D02*
G75*
G03*
X329894747Y-261396700I-450514J216879D01*
G01*
X330597522Y-262045280D02*
G75*
G03*
X330548035Y-262262157I450504J-216880D01*
G01*
X329894747Y-264533296D02*
G75*
G03*
X330597520Y-263884719I252258J431700D01*
G01*
X330548018Y-263667842D02*
G75*
G03*
X330597520Y-263884719I500018J42D01*
G01*
X308073037Y-262267157D02*
X308073037Y-263672841D01*
X308978584Y-264469999D02*
X310567488Y-264469999D01*
X310567488Y-261470000D02*
X308978583Y-261470000D01*
X311473035Y-263672841D02*
X311473035Y-262267157D01*
X308073036Y-262267156D02*
G75*
G03*
X308023551Y-262050279I-499989J1D01*
G01*
X308726325Y-261401701D02*
G75*
G03*
X308023553Y-262050279I-252258J-431700D01*
G01*
X308023552Y-263889719D02*
G75*
G03*
X308073037Y-263672841I-450505J216876D01*
G01*
X308023553Y-263889718D02*
G75*
G03*
X308726325Y-264538298I450513J-216880D01*
G01*
X308978584Y-264469999D02*
G75*
G03*
X308726325Y-264538298I2J-500009D01*
G01*
X308726325Y-261401701D02*
G75*
G03*
X308978583Y-261470000I252261J431710D01*
G01*
X310819746Y-264538297D02*
G75*
G03*
X310567488Y-264469999I-252260J-431713D01*
G01*
X310567489Y-261469999D02*
G75*
G03*
X310819747Y-261401700I-3J500009D01*
G01*
X311522520Y-262050279D02*
G75*
G03*
X310819747Y-261401700I-450514J216879D01*
G01*
X311522522Y-262050280D02*
G75*
G03*
X311473035Y-262267157I450504J-216880D01*
G01*
X310819747Y-264538296D02*
G75*
G03*
X311522520Y-263889719I252258J431700D01*
G01*
X311473018Y-263672842D02*
G75*
G03*
X311522520Y-263889719I500018J42D01*
G01*
X264223037Y-262242157D02*
X264223037Y-263647841D01*
X265128584Y-264444999D02*
X266717488Y-264444999D01*
X266717488Y-261445000D02*
X265128583Y-261445000D01*
X267623035Y-263647841D02*
X267623035Y-262242157D01*
X264223036Y-262242156D02*
G75*
G03*
X264173551Y-262025279I-499989J1D01*
G01*
X264876325Y-261376701D02*
G75*
G03*
X264173553Y-262025279I-252258J-431700D01*
G01*
X264173552Y-263864719D02*
G75*
G03*
X264223037Y-263647841I-450505J216876D01*
G01*
X264173553Y-263864718D02*
G75*
G03*
X264876325Y-264513298I450513J-216880D01*
G01*
X265128584Y-264444999D02*
G75*
G03*
X264876325Y-264513298I2J-500009D01*
G01*
X264876325Y-261376701D02*
G75*
G03*
X265128583Y-261445000I252261J431710D01*
G01*
X266969746Y-264513297D02*
G75*
G03*
X266717488Y-264444999I-252260J-431713D01*
G01*
X266717489Y-261444999D02*
G75*
G03*
X266969747Y-261376700I-3J500009D01*
G01*
X267672520Y-262025279D02*
G75*
G03*
X266969747Y-261376700I-450514J216879D01*
G01*
X267672522Y-262025280D02*
G75*
G03*
X267623035Y-262242157I450504J-216880D01*
G01*
X266969747Y-264513296D02*
G75*
G03*
X267672520Y-263864719I252258J431700D01*
G01*
X267623018Y-263647842D02*
G75*
G03*
X267672520Y-263864719I500018J42D01*
G01*
X245148037Y-262267157D02*
X245148037Y-263672841D01*
X246053584Y-264469999D02*
X247642488Y-264469999D01*
X247642488Y-261470000D02*
X246053583Y-261470000D01*
X248548035Y-263672841D02*
X248548035Y-262267157D01*
X245148036Y-262267156D02*
G75*
G03*
X245098551Y-262050279I-499989J1D01*
G01*
X245801325Y-261401701D02*
G75*
G03*
X245098553Y-262050279I-252258J-431700D01*
G01*
X245098552Y-263889719D02*
G75*
G03*
X245148037Y-263672841I-450505J216876D01*
G01*
X245098553Y-263889718D02*
G75*
G03*
X245801325Y-264538298I450513J-216880D01*
G01*
X246053584Y-264469999D02*
G75*
G03*
X245801325Y-264538298I2J-500009D01*
G01*
X245801325Y-261401701D02*
G75*
G03*
X246053583Y-261470000I252261J431710D01*
G01*
X247894746Y-264538297D02*
G75*
G03*
X247642488Y-264469999I-252260J-431713D01*
G01*
X247642489Y-261469999D02*
G75*
G03*
X247894747Y-261401700I-3J500009D01*
G01*
X248597520Y-262050279D02*
G75*
G03*
X247894747Y-261401700I-450514J216879D01*
G01*
X248597522Y-262050280D02*
G75*
G03*
X248548035Y-262267157I450504J-216880D01*
G01*
X247894747Y-264538296D02*
G75*
G03*
X248597520Y-263889719I252258J431700D01*
G01*
X248548018Y-263672842D02*
G75*
G03*
X248597520Y-263889719I500018J42D01*
G01*
X206648037Y-243092157D02*
X206648037Y-244497841D01*
X207553584Y-245294999D02*
X209142488Y-245294999D01*
X209142488Y-242295000D02*
X207553583Y-242295000D01*
X210048035Y-244497841D02*
X210048035Y-243092157D01*
X206648036Y-243092156D02*
G75*
G03*
X206598551Y-242875279I-499989J1D01*
G01*
X207301325Y-242226701D02*
G75*
G03*
X206598553Y-242875279I-252258J-431700D01*
G01*
X206598552Y-244714719D02*
G75*
G03*
X206648037Y-244497841I-450505J216876D01*
G01*
X206598553Y-244714718D02*
G75*
G03*
X207301325Y-245363298I450513J-216880D01*
G01*
X207553584Y-245294999D02*
G75*
G03*
X207301325Y-245363298I2J-500009D01*
G01*
X207301325Y-242226701D02*
G75*
G03*
X207553583Y-242295000I252261J431710D01*
G01*
X209394746Y-245363297D02*
G75*
G03*
X209142488Y-245294999I-252260J-431713D01*
G01*
X209142489Y-242294999D02*
G75*
G03*
X209394747Y-242226700I-3J500009D01*
G01*
X210097520Y-242875279D02*
G75*
G03*
X209394747Y-242226700I-450514J216879D01*
G01*
X210097522Y-242875280D02*
G75*
G03*
X210048035Y-243092157I450504J-216880D01*
G01*
X209394747Y-245363296D02*
G75*
G03*
X210097520Y-244714719I252258J431700D01*
G01*
X210048018Y-244497842D02*
G75*
G03*
X210097520Y-244714719I500018J42D01*
G01*
X288537564Y-204667157D02*
X288537564Y-206072841D01*
X289443111Y-206869999D02*
X291032015Y-206869999D01*
X291032015Y-203870000D02*
X289443110Y-203870000D01*
X291937562Y-206072841D02*
X291937562Y-204667157D01*
X288537563Y-204667156D02*
G75*
G03*
X288488078Y-204450279I-499989J1D01*
G01*
X289190852Y-203801701D02*
G75*
G03*
X288488080Y-204450279I-252258J-431700D01*
G01*
X288488079Y-206289719D02*
G75*
G03*
X288537564Y-206072841I-450505J216876D01*
G01*
X288488080Y-206289718D02*
G75*
G03*
X289190852Y-206938298I450513J-216880D01*
G01*
X289443111Y-206869999D02*
G75*
G03*
X289190852Y-206938298I2J-500009D01*
G01*
X289190852Y-203801701D02*
G75*
G03*
X289443110Y-203870000I252261J431710D01*
G01*
X291284273Y-206938297D02*
G75*
G03*
X291032015Y-206869999I-252260J-431713D01*
G01*
X291032016Y-203869999D02*
G75*
G03*
X291284274Y-203801700I-3J500009D01*
G01*
X291987047Y-204450279D02*
G75*
G03*
X291284274Y-203801700I-450514J216879D01*
G01*
X291987049Y-204450280D02*
G75*
G03*
X291937562Y-204667157I450504J-216880D01*
G01*
X291284274Y-206938296D02*
G75*
G03*
X291987047Y-206289719I252258J431700D01*
G01*
X291937545Y-206072842D02*
G75*
G03*
X291987047Y-206289719I500018J42D01*
G01*
X225896162Y-243082157D02*
X225896162Y-244487841D01*
X226801709Y-245284999D02*
X228390613Y-245284999D01*
X228390613Y-242285000D02*
X226801708Y-242285000D01*
X229296160Y-244487841D02*
X229296160Y-243082157D01*
X225896161Y-243082156D02*
G75*
G03*
X225846676Y-242865279I-499989J1D01*
G01*
X226549450Y-242216701D02*
G75*
G03*
X225846678Y-242865279I-252258J-431700D01*
G01*
X225846677Y-244704719D02*
G75*
G03*
X225896162Y-244487841I-450505J216876D01*
G01*
X225846678Y-244704718D02*
G75*
G03*
X226549450Y-245353298I450513J-216880D01*
G01*
X226801709Y-245284999D02*
G75*
G03*
X226549450Y-245353298I2J-500009D01*
G01*
X226549450Y-242216701D02*
G75*
G03*
X226801708Y-242285000I252261J431710D01*
G01*
X228642871Y-245353297D02*
G75*
G03*
X228390613Y-245284999I-252260J-431713D01*
G01*
X228390614Y-242284999D02*
G75*
G03*
X228642872Y-242216700I-3J500009D01*
G01*
X229345645Y-242865279D02*
G75*
G03*
X228642872Y-242216700I-450514J216879D01*
G01*
X229345647Y-242865280D02*
G75*
G03*
X229296160Y-243082157I450504J-216880D01*
G01*
X228642872Y-245353296D02*
G75*
G03*
X229345645Y-244704719I252258J431700D01*
G01*
X229296143Y-244487842D02*
G75*
G03*
X229345645Y-244704719I500018J42D01*
G01*
X190126231Y-262272157D02*
X190126231Y-263677841D01*
X191031778Y-264474999D02*
X192620682Y-264474999D01*
X192620682Y-261475000D02*
X191031777Y-261475000D01*
X193526229Y-263677841D02*
X193526229Y-262272157D01*
X190126230Y-262272156D02*
G75*
G03*
X190076745Y-262055279I-499989J1D01*
G01*
X190779519Y-261406701D02*
G75*
G03*
X190076747Y-262055279I-252258J-431700D01*
G01*
X190076746Y-263894719D02*
G75*
G03*
X190126231Y-263677841I-450505J216876D01*
G01*
X190076747Y-263894718D02*
G75*
G03*
X190779519Y-264543298I450513J-216880D01*
G01*
X191031778Y-264474999D02*
G75*
G03*
X190779519Y-264543298I2J-500009D01*
G01*
X190779519Y-261406701D02*
G75*
G03*
X191031777Y-261475000I252261J431710D01*
G01*
X192872940Y-264543297D02*
G75*
G03*
X192620682Y-264474999I-252260J-431713D01*
G01*
X192620683Y-261474999D02*
G75*
G03*
X192872941Y-261406700I-3J500009D01*
G01*
X193575714Y-262055279D02*
G75*
G03*
X192872941Y-261406700I-450514J216879D01*
G01*
X193575716Y-262055280D02*
G75*
G03*
X193526229Y-262272157I450504J-216880D01*
G01*
X192872941Y-264543296D02*
G75*
G03*
X193575714Y-263894719I252258J431700D01*
G01*
X193526212Y-263677842D02*
G75*
G03*
X193575714Y-263894719I500018J42D01*
G01*
X211619384Y-204667157D02*
X211619384Y-206072841D01*
X212524931Y-206869999D02*
X214113835Y-206869999D01*
X214113835Y-203870000D02*
X212524930Y-203870000D01*
X215019382Y-206072841D02*
X215019382Y-204667157D01*
X211619383Y-204667156D02*
G75*
G03*
X211569898Y-204450279I-499989J1D01*
G01*
X212272672Y-203801701D02*
G75*
G03*
X211569900Y-204450279I-252258J-431700D01*
G01*
X211569899Y-206289719D02*
G75*
G03*
X211619384Y-206072841I-450505J216876D01*
G01*
X211569900Y-206289718D02*
G75*
G03*
X212272672Y-206938298I450513J-216880D01*
G01*
X212524931Y-206869999D02*
G75*
G03*
X212272672Y-206938298I2J-500009D01*
G01*
X212272672Y-203801701D02*
G75*
G03*
X212524930Y-203870000I252261J431710D01*
G01*
X214366093Y-206938297D02*
G75*
G03*
X214113835Y-206869999I-252260J-431713D01*
G01*
X214113836Y-203869999D02*
G75*
G03*
X214366094Y-203801700I-3J500009D01*
G01*
X215068867Y-204450279D02*
G75*
G03*
X214366094Y-203801700I-450514J216879D01*
G01*
X215068869Y-204450280D02*
G75*
G03*
X215019382Y-204667157I450504J-216880D01*
G01*
X214366094Y-206938296D02*
G75*
G03*
X215068867Y-206289719I252258J431700D01*
G01*
X215019365Y-206072842D02*
G75*
G03*
X215068867Y-206289719I500018J42D01*
G01*
X264392412Y-243082157D02*
X264392412Y-244487841D01*
X265297959Y-245284999D02*
X266886863Y-245284999D01*
X266886863Y-242285000D02*
X265297958Y-242285000D01*
X267792410Y-244487841D02*
X267792410Y-243082157D01*
X264392411Y-243082156D02*
G75*
G03*
X264342926Y-242865279I-499989J1D01*
G01*
X265045700Y-242216701D02*
G75*
G03*
X264342928Y-242865279I-252258J-431700D01*
G01*
X264342927Y-244704719D02*
G75*
G03*
X264392412Y-244487841I-450505J216876D01*
G01*
X264342928Y-244704718D02*
G75*
G03*
X265045700Y-245353298I450513J-216880D01*
G01*
X265297959Y-245284999D02*
G75*
G03*
X265045700Y-245353298I2J-500009D01*
G01*
X265045700Y-242216701D02*
G75*
G03*
X265297958Y-242285000I252261J431710D01*
G01*
X267139121Y-245353297D02*
G75*
G03*
X266886863Y-245284999I-252260J-431713D01*
G01*
X266886864Y-242284999D02*
G75*
G03*
X267139122Y-242216700I-3J500009D01*
G01*
X267841895Y-242865279D02*
G75*
G03*
X267139122Y-242216700I-450514J216879D01*
G01*
X267841897Y-242865280D02*
G75*
G03*
X267792410Y-243082157I450504J-216880D01*
G01*
X267139122Y-245353296D02*
G75*
G03*
X267841895Y-244704719I252258J431700D01*
G01*
X267792393Y-244487842D02*
G75*
G03*
X267841895Y-244704719I500018J42D01*
G01*
X432624912Y-243082157D02*
X432624912Y-244487841D01*
X433530459Y-245284999D02*
X435119363Y-245284999D01*
X435119363Y-242285000D02*
X433530458Y-242285000D01*
X436024910Y-244487841D02*
X436024910Y-243082157D01*
X432624911Y-243082156D02*
G75*
G03*
X432575426Y-242865279I-499989J1D01*
G01*
X433278200Y-242216701D02*
G75*
G03*
X432575428Y-242865279I-252258J-431700D01*
G01*
X432575427Y-244704719D02*
G75*
G03*
X432624912Y-244487841I-450505J216876D01*
G01*
X432575428Y-244704718D02*
G75*
G03*
X433278200Y-245353298I450513J-216880D01*
G01*
X433530459Y-245284999D02*
G75*
G03*
X433278200Y-245353298I2J-500009D01*
G01*
X433278200Y-242216701D02*
G75*
G03*
X433530458Y-242285000I252261J431710D01*
G01*
X435371621Y-245353297D02*
G75*
G03*
X435119363Y-245284999I-252260J-431713D01*
G01*
X435119364Y-242284999D02*
G75*
G03*
X435371622Y-242216700I-3J500009D01*
G01*
X436074395Y-242865279D02*
G75*
G03*
X435371622Y-242216700I-450514J216879D01*
G01*
X436074397Y-242865280D02*
G75*
G03*
X436024910Y-243082157I450504J-216880D01*
G01*
X435371622Y-245353296D02*
G75*
G03*
X436074395Y-244704719I252258J431700D01*
G01*
X436024893Y-244487842D02*
G75*
G03*
X436074395Y-244704719I500018J42D01*
G01*
X307767109Y-204667157D02*
X307767109Y-206072841D01*
X308672656Y-206869999D02*
X310261560Y-206869999D01*
X310261560Y-203870000D02*
X308672655Y-203870000D01*
X311167107Y-206072841D02*
X311167107Y-204667157D01*
X307767108Y-204667156D02*
G75*
G03*
X307717623Y-204450279I-499989J1D01*
G01*
X308420397Y-203801701D02*
G75*
G03*
X307717625Y-204450279I-252258J-431700D01*
G01*
X307717624Y-206289719D02*
G75*
G03*
X307767109Y-206072841I-450505J216876D01*
G01*
X307717625Y-206289718D02*
G75*
G03*
X308420397Y-206938298I450513J-216880D01*
G01*
X308672656Y-206869999D02*
G75*
G03*
X308420397Y-206938298I2J-500009D01*
G01*
X308420397Y-203801701D02*
G75*
G03*
X308672655Y-203870000I252261J431710D01*
G01*
X310513818Y-206938297D02*
G75*
G03*
X310261560Y-206869999I-252260J-431713D01*
G01*
X310261561Y-203869999D02*
G75*
G03*
X310513819Y-203801700I-3J500009D01*
G01*
X311216592Y-204450279D02*
G75*
G03*
X310513819Y-203801700I-450514J216879D01*
G01*
X311216594Y-204450280D02*
G75*
G03*
X311167107Y-204667157I450504J-216880D01*
G01*
X310513819Y-206938296D02*
G75*
G03*
X311216592Y-206289719I252258J431700D01*
G01*
X311167090Y-206072842D02*
G75*
G03*
X311216592Y-206289719I500018J42D01*
G01*
X163623037Y-185448407D02*
X163623037Y-186854091D01*
X164528584Y-187651249D02*
X166117488Y-187651249D01*
X166117488Y-184651250D02*
X164528583Y-184651250D01*
X167023035Y-186854091D02*
X167023035Y-185448407D01*
X163623036Y-185448406D02*
G75*
G03*
X163573551Y-185231529I-499989J1D01*
G01*
X164276325Y-184582951D02*
G75*
G03*
X163573553Y-185231529I-252258J-431700D01*
G01*
X163573552Y-187070969D02*
G75*
G03*
X163623037Y-186854091I-450505J216876D01*
G01*
X163573553Y-187070968D02*
G75*
G03*
X164276325Y-187719548I450513J-216880D01*
G01*
X164528584Y-187651249D02*
G75*
G03*
X164276325Y-187719548I2J-500009D01*
G01*
X164276325Y-184582951D02*
G75*
G03*
X164528583Y-184651250I252261J431710D01*
G01*
X166369746Y-187719547D02*
G75*
G03*
X166117488Y-187651249I-252260J-431713D01*
G01*
X166117489Y-184651249D02*
G75*
G03*
X166369747Y-184582950I-3J500009D01*
G01*
X167072520Y-185231529D02*
G75*
G03*
X166369747Y-184582950I-450514J216879D01*
G01*
X167072522Y-185231530D02*
G75*
G03*
X167023035Y-185448407I450504J-216880D01*
G01*
X166369747Y-187719546D02*
G75*
G03*
X167072520Y-187070969I252258J431700D01*
G01*
X167023018Y-186854092D02*
G75*
G03*
X167072520Y-187070969I500018J42D01*
G01*
X168398037Y-204667157D02*
X168398037Y-206072841D01*
X169303584Y-206869999D02*
X170892488Y-206869999D01*
X170892488Y-203870000D02*
X169303583Y-203870000D01*
X171798035Y-206072841D02*
X171798035Y-204667157D01*
X168398036Y-204667156D02*
G75*
G03*
X168348551Y-204450279I-499989J1D01*
G01*
X169051325Y-203801701D02*
G75*
G03*
X168348553Y-204450279I-252258J-431700D01*
G01*
X168348552Y-206289719D02*
G75*
G03*
X168398037Y-206072841I-450505J216876D01*
G01*
X168348553Y-206289718D02*
G75*
G03*
X169051325Y-206938298I450513J-216880D01*
G01*
X169303584Y-206869999D02*
G75*
G03*
X169051325Y-206938298I2J-500009D01*
G01*
X169051325Y-203801701D02*
G75*
G03*
X169303583Y-203870000I252261J431710D01*
G01*
X171144746Y-206938297D02*
G75*
G03*
X170892488Y-206869999I-252260J-431713D01*
G01*
X170892489Y-203869999D02*
G75*
G03*
X171144747Y-203801700I-3J500009D01*
G01*
X171847520Y-204450279D02*
G75*
G03*
X171144747Y-203801700I-450514J216879D01*
G01*
X171847522Y-204450280D02*
G75*
G03*
X171798035Y-204667157I450504J-216880D01*
G01*
X171144747Y-206938296D02*
G75*
G03*
X171847520Y-206289719I252258J431700D01*
G01*
X171798018Y-206072842D02*
G75*
G03*
X171847520Y-206289719I500018J42D01*
G01*
X269308019Y-204667157D02*
X269308019Y-206072841D01*
X270213566Y-206869999D02*
X271802470Y-206869999D01*
X271802470Y-203870000D02*
X270213565Y-203870000D01*
X272708017Y-206072841D02*
X272708017Y-204667157D01*
X269308018Y-204667156D02*
G75*
G03*
X269258533Y-204450279I-499989J1D01*
G01*
X269961307Y-203801701D02*
G75*
G03*
X269258535Y-204450279I-252258J-431700D01*
G01*
X269258534Y-206289719D02*
G75*
G03*
X269308019Y-206072841I-450505J216876D01*
G01*
X269258535Y-206289718D02*
G75*
G03*
X269961307Y-206938298I450513J-216880D01*
G01*
X270213566Y-206869999D02*
G75*
G03*
X269961307Y-206938298I2J-500009D01*
G01*
X269961307Y-203801701D02*
G75*
G03*
X270213565Y-203870000I252261J431710D01*
G01*
X272054728Y-206938297D02*
G75*
G03*
X271802470Y-206869999I-252260J-431713D01*
G01*
X271802471Y-203869999D02*
G75*
G03*
X272054729Y-203801700I-3J500009D01*
G01*
X272757502Y-204450279D02*
G75*
G03*
X272054729Y-203801700I-450514J216879D01*
G01*
X272757504Y-204450280D02*
G75*
G03*
X272708017Y-204667157I450504J-216880D01*
G01*
X272054729Y-206938296D02*
G75*
G03*
X272757502Y-206289719I252258J431700D01*
G01*
X272708000Y-206072842D02*
G75*
G03*
X272757502Y-206289719I500018J42D01*
G01*
X285927619Y-262272157D02*
X285927619Y-263677841D01*
X286833166Y-264474999D02*
X288422070Y-264474999D01*
X288422070Y-261475000D02*
X286833165Y-261475000D01*
X289327617Y-263677841D02*
X289327617Y-262272157D01*
X285927618Y-262272156D02*
G75*
G03*
X285878133Y-262055279I-499989J1D01*
G01*
X286580907Y-261406701D02*
G75*
G03*
X285878135Y-262055279I-252258J-431700D01*
G01*
X285878134Y-263894719D02*
G75*
G03*
X285927619Y-263677841I-450505J216876D01*
G01*
X285878135Y-263894718D02*
G75*
G03*
X286580907Y-264543298I450513J-216880D01*
G01*
X286833166Y-264474999D02*
G75*
G03*
X286580907Y-264543298I2J-500009D01*
G01*
X286580907Y-261406701D02*
G75*
G03*
X286833165Y-261475000I252261J431710D01*
G01*
X288674328Y-264543297D02*
G75*
G03*
X288422070Y-264474999I-252260J-431713D01*
G01*
X288422071Y-261474999D02*
G75*
G03*
X288674329Y-261406700I-3J500009D01*
G01*
X289377102Y-262055279D02*
G75*
G03*
X288674329Y-261406700I-450514J216879D01*
G01*
X289377104Y-262055280D02*
G75*
G03*
X289327617Y-262272157I450504J-216880D01*
G01*
X288674329Y-264543296D02*
G75*
G03*
X289377102Y-263894719I252258J431700D01*
G01*
X289327600Y-263677842D02*
G75*
G03*
X289377102Y-263894719I500018J42D01*
G01*
X432685537Y-166229657D02*
X432685537Y-167635341D01*
X433591084Y-168432499D02*
X435179988Y-168432499D01*
X435179988Y-165432500D02*
X433591083Y-165432500D01*
X436085535Y-167635341D02*
X436085535Y-166229657D01*
X432685536Y-166229656D02*
G75*
G03*
X432636051Y-166012779I-499989J1D01*
G01*
X433338825Y-165364201D02*
G75*
G03*
X432636053Y-166012779I-252258J-431700D01*
G01*
X432636052Y-167852219D02*
G75*
G03*
X432685537Y-167635341I-450505J216876D01*
G01*
X432636053Y-167852218D02*
G75*
G03*
X433338825Y-168500798I450513J-216880D01*
G01*
X433591084Y-168432499D02*
G75*
G03*
X433338825Y-168500798I2J-500009D01*
G01*
X433338825Y-165364201D02*
G75*
G03*
X433591083Y-165432500I252261J431710D01*
G01*
X435432246Y-168500797D02*
G75*
G03*
X435179988Y-168432499I-252260J-431713D01*
G01*
X435179989Y-165432499D02*
G75*
G03*
X435432247Y-165364200I-3J500009D01*
G01*
X436135020Y-166012779D02*
G75*
G03*
X435432247Y-165364200I-450514J216879D01*
G01*
X436135022Y-166012780D02*
G75*
G03*
X436085535Y-166229657I450504J-216880D01*
G01*
X435432247Y-168500796D02*
G75*
G03*
X436135020Y-167852219I252258J431700D01*
G01*
X436085518Y-167635342D02*
G75*
G03*
X436135020Y-167852219I500018J42D01*
G01*
X216432923Y-223872157D02*
X216432923Y-225277841D01*
X217338470Y-226074999D02*
X218927374Y-226074999D01*
X218927374Y-223075000D02*
X217338469Y-223075000D01*
X219832921Y-225277841D02*
X219832921Y-223872157D01*
X216432922Y-223872156D02*
G75*
G03*
X216383437Y-223655279I-499989J1D01*
G01*
X217086211Y-223006701D02*
G75*
G03*
X216383439Y-223655279I-252258J-431700D01*
G01*
X216383438Y-225494719D02*
G75*
G03*
X216432923Y-225277841I-450505J216876D01*
G01*
X216383439Y-225494718D02*
G75*
G03*
X217086211Y-226143298I450513J-216880D01*
G01*
X217338470Y-226074999D02*
G75*
G03*
X217086211Y-226143298I2J-500009D01*
G01*
X217086211Y-223006701D02*
G75*
G03*
X217338469Y-223075000I252261J431710D01*
G01*
X219179632Y-226143297D02*
G75*
G03*
X218927374Y-226074999I-252260J-431713D01*
G01*
X218927375Y-223074999D02*
G75*
G03*
X219179633Y-223006700I-3J500009D01*
G01*
X219882406Y-223655279D02*
G75*
G03*
X219179633Y-223006700I-450514J216879D01*
G01*
X219882408Y-223655280D02*
G75*
G03*
X219832921Y-223872157I450504J-216880D01*
G01*
X219179633Y-226143296D02*
G75*
G03*
X219882406Y-225494719I252258J431700D01*
G01*
X219832904Y-225277842D02*
G75*
G03*
X219882406Y-225494719I500018J42D01*
G01*
X406233037Y-243082157D02*
X406233037Y-244487841D01*
X407138584Y-245284999D02*
X408727488Y-245284999D01*
X408727488Y-242285000D02*
X407138583Y-242285000D01*
X409633035Y-244487841D02*
X409633035Y-243082157D01*
X406233036Y-243082156D02*
G75*
G03*
X406183551Y-242865279I-499989J1D01*
G01*
X406886325Y-242216701D02*
G75*
G03*
X406183553Y-242865279I-252258J-431700D01*
G01*
X406183552Y-244704719D02*
G75*
G03*
X406233037Y-244487841I-450505J216876D01*
G01*
X406183553Y-244704718D02*
G75*
G03*
X406886325Y-245353298I450513J-216880D01*
G01*
X407138584Y-245284999D02*
G75*
G03*
X406886325Y-245353298I2J-500009D01*
G01*
X406886325Y-242216701D02*
G75*
G03*
X407138583Y-242285000I252261J431710D01*
G01*
X408979746Y-245353297D02*
G75*
G03*
X408727488Y-245284999I-252260J-431713D01*
G01*
X408727489Y-242284999D02*
G75*
G03*
X408979747Y-242216700I-3J500009D01*
G01*
X409682520Y-242865279D02*
G75*
G03*
X408979747Y-242216700I-450514J216879D01*
G01*
X409682522Y-242865280D02*
G75*
G03*
X409633035Y-243082157I450504J-216880D01*
G01*
X408979747Y-245353296D02*
G75*
G03*
X409682520Y-244704719I252258J431700D01*
G01*
X409633018Y-244487842D02*
G75*
G03*
X409682520Y-244704719I500018J42D01*
G01*
X451888037Y-262272157D02*
X451888037Y-263677841D01*
X452793584Y-264474999D02*
X454382488Y-264474999D01*
X454382488Y-261475000D02*
X452793583Y-261475000D01*
X455288035Y-263677841D02*
X455288035Y-262272157D01*
X451888036Y-262272156D02*
G75*
G03*
X451838551Y-262055279I-499989J1D01*
G01*
X452541325Y-261406701D02*
G75*
G03*
X451838553Y-262055279I-252258J-431700D01*
G01*
X451838552Y-263894719D02*
G75*
G03*
X451888037Y-263677841I-450505J216876D01*
G01*
X451838553Y-263894718D02*
G75*
G03*
X452541325Y-264543298I450513J-216880D01*
G01*
X452793584Y-264474999D02*
G75*
G03*
X452541325Y-264543298I2J-500009D01*
G01*
X452541325Y-261406701D02*
G75*
G03*
X452793583Y-261475000I252261J431710D01*
G01*
X454634746Y-264543297D02*
G75*
G03*
X454382488Y-264474999I-252260J-431713D01*
G01*
X454382489Y-261474999D02*
G75*
G03*
X454634747Y-261406700I-3J500009D01*
G01*
X455337520Y-262055279D02*
G75*
G03*
X454634747Y-261406700I-450514J216879D01*
G01*
X455337522Y-262055280D02*
G75*
G03*
X455288035Y-262272157I450504J-216880D01*
G01*
X454634747Y-264543296D02*
G75*
G03*
X455337520Y-263894719I252258J431700D01*
G01*
X455288018Y-263677842D02*
G75*
G03*
X455337520Y-263894719I500018J42D01*
G01*
X403914839Y-204667157D02*
X403914839Y-206072841D01*
X404820386Y-206869999D02*
X406409290Y-206869999D01*
X406409290Y-203870000D02*
X404820385Y-203870000D01*
X407314837Y-206072841D02*
X407314837Y-204667157D01*
X403914838Y-204667156D02*
G75*
G03*
X403865353Y-204450279I-499989J1D01*
G01*
X404568127Y-203801701D02*
G75*
G03*
X403865355Y-204450279I-252258J-431700D01*
G01*
X403865354Y-206289719D02*
G75*
G03*
X403914839Y-206072841I-450505J216876D01*
G01*
X403865355Y-206289718D02*
G75*
G03*
X404568127Y-206938298I450513J-216880D01*
G01*
X404820386Y-206869999D02*
G75*
G03*
X404568127Y-206938298I2J-500009D01*
G01*
X404568127Y-203801701D02*
G75*
G03*
X404820385Y-203870000I252261J431710D01*
G01*
X406661548Y-206938297D02*
G75*
G03*
X406409290Y-206869999I-252260J-431713D01*
G01*
X406409291Y-203869999D02*
G75*
G03*
X406661549Y-203801700I-3J500009D01*
G01*
X407364322Y-204450279D02*
G75*
G03*
X406661549Y-203801700I-450514J216879D01*
G01*
X407364324Y-204450280D02*
G75*
G03*
X407314837Y-204667157I450504J-216880D01*
G01*
X406661549Y-206938296D02*
G75*
G03*
X407364322Y-206289719I252258J431700D01*
G01*
X407314820Y-206072842D02*
G75*
G03*
X407364322Y-206289719I500018J42D01*
G01*
X393910951Y-262272157D02*
X393910951Y-263677841D01*
X394816498Y-264474999D02*
X396405402Y-264474999D01*
X396405402Y-261475000D02*
X394816497Y-261475000D01*
X397310949Y-263677841D02*
X397310949Y-262272157D01*
X393910950Y-262272156D02*
G75*
G03*
X393861465Y-262055279I-499989J1D01*
G01*
X394564239Y-261406701D02*
G75*
G03*
X393861467Y-262055279I-252258J-431700D01*
G01*
X393861466Y-263894719D02*
G75*
G03*
X393910951Y-263677841I-450505J216876D01*
G01*
X393861467Y-263894718D02*
G75*
G03*
X394564239Y-264543298I450513J-216880D01*
G01*
X394816498Y-264474999D02*
G75*
G03*
X394564239Y-264543298I2J-500009D01*
G01*
X394564239Y-261406701D02*
G75*
G03*
X394816497Y-261475000I252261J431710D01*
G01*
X396657660Y-264543297D02*
G75*
G03*
X396405402Y-264474999I-252260J-431713D01*
G01*
X396405403Y-261474999D02*
G75*
G03*
X396657661Y-261406700I-3J500009D01*
G01*
X397360434Y-262055279D02*
G75*
G03*
X396657661Y-261406700I-450514J216879D01*
G01*
X397360436Y-262055280D02*
G75*
G03*
X397310949Y-262272157I450504J-216880D01*
G01*
X396657661Y-264543296D02*
G75*
G03*
X397360434Y-263894719I252258J431700D01*
G01*
X397310932Y-263677842D02*
G75*
G03*
X397360434Y-263894719I500018J42D01*
G01*
X355259563Y-262272157D02*
X355259563Y-263677841D01*
X356165110Y-264474999D02*
X357754014Y-264474999D01*
X357754014Y-261475000D02*
X356165109Y-261475000D01*
X358659561Y-263677841D02*
X358659561Y-262272157D01*
X355259562Y-262272156D02*
G75*
G03*
X355210077Y-262055279I-499989J1D01*
G01*
X355912851Y-261406701D02*
G75*
G03*
X355210079Y-262055279I-252258J-431700D01*
G01*
X355210078Y-263894719D02*
G75*
G03*
X355259563Y-263677841I-450505J216876D01*
G01*
X355210079Y-263894718D02*
G75*
G03*
X355912851Y-264543298I450513J-216880D01*
G01*
X356165110Y-264474999D02*
G75*
G03*
X355912851Y-264543298I2J-500009D01*
G01*
X355912851Y-261406701D02*
G75*
G03*
X356165109Y-261475000I252261J431710D01*
G01*
X358006272Y-264543297D02*
G75*
G03*
X357754014Y-264474999I-252260J-431713D01*
G01*
X357754015Y-261474999D02*
G75*
G03*
X358006273Y-261406700I-3J500009D01*
G01*
X358709046Y-262055279D02*
G75*
G03*
X358006273Y-261406700I-450514J216879D01*
G01*
X358709048Y-262055280D02*
G75*
G03*
X358659561Y-262272157I450504J-216880D01*
G01*
X358006273Y-264543296D02*
G75*
G03*
X358709046Y-263894719I252258J431700D01*
G01*
X358659544Y-263677842D02*
G75*
G03*
X358709046Y-263894719I500018J42D01*
G01*
X250078474Y-204667157D02*
X250078474Y-206072841D01*
X250984021Y-206869999D02*
X252572925Y-206869999D01*
X252572925Y-203870000D02*
X250984020Y-203870000D01*
X253478472Y-206072841D02*
X253478472Y-204667157D01*
X250078473Y-204667156D02*
G75*
G03*
X250028988Y-204450279I-499989J1D01*
G01*
X250731762Y-203801701D02*
G75*
G03*
X250028990Y-204450279I-252258J-431700D01*
G01*
X250028989Y-206289719D02*
G75*
G03*
X250078474Y-206072841I-450505J216876D01*
G01*
X250028990Y-206289718D02*
G75*
G03*
X250731762Y-206938298I450513J-216880D01*
G01*
X250984021Y-206869999D02*
G75*
G03*
X250731762Y-206938298I2J-500009D01*
G01*
X250731762Y-203801701D02*
G75*
G03*
X250984020Y-203870000I252261J431710D01*
G01*
X252825183Y-206938297D02*
G75*
G03*
X252572925Y-206869999I-252260J-431713D01*
G01*
X252572926Y-203869999D02*
G75*
G03*
X252825184Y-203801700I-3J500009D01*
G01*
X253527957Y-204450279D02*
G75*
G03*
X252825184Y-203801700I-450514J216879D01*
G01*
X253527959Y-204450280D02*
G75*
G03*
X253478472Y-204667157I450504J-216880D01*
G01*
X252825184Y-206938296D02*
G75*
G03*
X253527957Y-206289719I252258J431700D01*
G01*
X253478455Y-206072842D02*
G75*
G03*
X253527957Y-206289719I500018J42D01*
G01*
X389688037Y-223872157D02*
X389688037Y-225277841D01*
X390593584Y-226074999D02*
X392182488Y-226074999D01*
X392182488Y-223075000D02*
X390593583Y-223075000D01*
X393088035Y-225277841D02*
X393088035Y-223872157D01*
X389688036Y-223872156D02*
G75*
G03*
X389638551Y-223655279I-499989J1D01*
G01*
X390341325Y-223006701D02*
G75*
G03*
X389638553Y-223655279I-252258J-431700D01*
G01*
X389638552Y-225494719D02*
G75*
G03*
X389688037Y-225277841I-450505J216876D01*
G01*
X389638553Y-225494718D02*
G75*
G03*
X390341325Y-226143298I450513J-216880D01*
G01*
X390593584Y-226074999D02*
G75*
G03*
X390341325Y-226143298I2J-500009D01*
G01*
X390341325Y-223006701D02*
G75*
G03*
X390593583Y-223075000I252261J431710D01*
G01*
X392434746Y-226143297D02*
G75*
G03*
X392182488Y-226074999I-252260J-431713D01*
G01*
X392182489Y-223074999D02*
G75*
G03*
X392434747Y-223006700I-3J500009D01*
G01*
X393137520Y-223655279D02*
G75*
G03*
X392434747Y-223006700I-450514J216879D01*
G01*
X393137522Y-223655280D02*
G75*
G03*
X393088035Y-223872157I450504J-216880D01*
G01*
X392434747Y-226143296D02*
G75*
G03*
X393137520Y-225494719I252258J431700D01*
G01*
X393088018Y-225277842D02*
G75*
G03*
X393137520Y-225494719I500018J42D01*
G01*
X379881162Y-243082157D02*
X379881162Y-244487841D01*
X380786709Y-245284999D02*
X382375613Y-245284999D01*
X382375613Y-242285000D02*
X380786708Y-242285000D01*
X383281160Y-244487841D02*
X383281160Y-243082157D01*
X379881161Y-243082156D02*
G75*
G03*
X379831676Y-242865279I-499989J1D01*
G01*
X380534450Y-242216701D02*
G75*
G03*
X379831678Y-242865279I-252258J-431700D01*
G01*
X379831677Y-244704719D02*
G75*
G03*
X379881162Y-244487841I-450505J216876D01*
G01*
X379831678Y-244704718D02*
G75*
G03*
X380534450Y-245353298I450513J-216880D01*
G01*
X380786709Y-245284999D02*
G75*
G03*
X380534450Y-245353298I2J-500009D01*
G01*
X380534450Y-242216701D02*
G75*
G03*
X380786708Y-242285000I252261J431710D01*
G01*
X382627871Y-245353297D02*
G75*
G03*
X382375613Y-245284999I-252260J-431713D01*
G01*
X382375614Y-242284999D02*
G75*
G03*
X382627872Y-242216700I-3J500009D01*
G01*
X383330645Y-242865279D02*
G75*
G03*
X382627872Y-242216700I-450514J216879D01*
G01*
X383330647Y-242865280D02*
G75*
G03*
X383281160Y-243082157I450504J-216880D01*
G01*
X382627872Y-245353296D02*
G75*
G03*
X383330645Y-244704719I252258J431700D01*
G01*
X383281143Y-244487842D02*
G75*
G03*
X383330645Y-244704719I500018J42D01*
G01*
X192389839Y-204667157D02*
X192389839Y-206072841D01*
X193295386Y-206869999D02*
X194884290Y-206869999D01*
X194884290Y-203870000D02*
X193295385Y-203870000D01*
X195789837Y-206072841D02*
X195789837Y-204667157D01*
X192389838Y-204667156D02*
G75*
G03*
X192340353Y-204450279I-499989J1D01*
G01*
X193043127Y-203801701D02*
G75*
G03*
X192340355Y-204450279I-252258J-431700D01*
G01*
X192340354Y-206289719D02*
G75*
G03*
X192389839Y-206072841I-450505J216876D01*
G01*
X192340355Y-206289718D02*
G75*
G03*
X193043127Y-206938298I450513J-216880D01*
G01*
X193295386Y-206869999D02*
G75*
G03*
X193043127Y-206938298I2J-500009D01*
G01*
X193043127Y-203801701D02*
G75*
G03*
X193295385Y-203870000I252261J431710D01*
G01*
X195136548Y-206938297D02*
G75*
G03*
X194884290Y-206869999I-252260J-431713D01*
G01*
X194884291Y-203869999D02*
G75*
G03*
X195136549Y-203801700I-3J500009D01*
G01*
X195839322Y-204450279D02*
G75*
G03*
X195136549Y-203801700I-450514J216879D01*
G01*
X195839324Y-204450280D02*
G75*
G03*
X195789837Y-204667157I450504J-216880D01*
G01*
X195136549Y-206938296D02*
G75*
G03*
X195839322Y-206289719I252258J431700D01*
G01*
X195789820Y-206072842D02*
G75*
G03*
X195839322Y-206289719I500018J42D01*
G01*
X413466787Y-166229657D02*
X413466787Y-167635341D01*
X414372334Y-168432499D02*
X415961238Y-168432499D01*
X415961238Y-165432500D02*
X414372333Y-165432500D01*
X416866785Y-167635341D02*
X416866785Y-166229657D01*
X413466786Y-166229656D02*
G75*
G03*
X413417301Y-166012779I-499989J1D01*
G01*
X414120075Y-165364201D02*
G75*
G03*
X413417303Y-166012779I-252258J-431700D01*
G01*
X413417302Y-167852219D02*
G75*
G03*
X413466787Y-167635341I-450505J216876D01*
G01*
X413417303Y-167852218D02*
G75*
G03*
X414120075Y-168500798I450513J-216880D01*
G01*
X414372334Y-168432499D02*
G75*
G03*
X414120075Y-168500798I2J-500009D01*
G01*
X414120075Y-165364201D02*
G75*
G03*
X414372333Y-165432500I252261J431710D01*
G01*
X416213496Y-168500797D02*
G75*
G03*
X415961238Y-168432499I-252260J-431713D01*
G01*
X415961239Y-165432499D02*
G75*
G03*
X416213497Y-165364200I-3J500009D01*
G01*
X416916270Y-166012779D02*
G75*
G03*
X416213497Y-165364200I-450514J216879D01*
G01*
X416916272Y-166012780D02*
G75*
G03*
X416866785Y-166229657I450504J-216880D01*
G01*
X416213497Y-168500796D02*
G75*
G03*
X416916270Y-167852219I252258J431700D01*
G01*
X416866768Y-167635342D02*
G75*
G03*
X416916270Y-167852219I500018J42D01*
G01*
X394223037Y-185448407D02*
X394223037Y-186854091D01*
X395128584Y-187651249D02*
X396717488Y-187651249D01*
X396717488Y-184651250D02*
X395128583Y-184651250D01*
X397623035Y-186854091D02*
X397623035Y-185448407D01*
X394223036Y-185448406D02*
G75*
G03*
X394173551Y-185231529I-499989J1D01*
G01*
X394876325Y-184582951D02*
G75*
G03*
X394173553Y-185231529I-252258J-431700D01*
G01*
X394173552Y-187070969D02*
G75*
G03*
X394223037Y-186854091I-450505J216876D01*
G01*
X394173553Y-187070968D02*
G75*
G03*
X394876325Y-187719548I450513J-216880D01*
G01*
X395128584Y-187651249D02*
G75*
G03*
X394876325Y-187719548I2J-500009D01*
G01*
X394876325Y-184582951D02*
G75*
G03*
X395128583Y-184651250I252261J431710D01*
G01*
X396969746Y-187719547D02*
G75*
G03*
X396717488Y-187651249I-252260J-431713D01*
G01*
X396717489Y-184651249D02*
G75*
G03*
X396969747Y-184582950I-3J500009D01*
G01*
X397672520Y-185231529D02*
G75*
G03*
X396969747Y-184582950I-450514J216879D01*
G01*
X397672522Y-185231530D02*
G75*
G03*
X397623035Y-185448407I450504J-216880D01*
G01*
X396969747Y-187719546D02*
G75*
G03*
X397672520Y-187070969I252258J431700D01*
G01*
X397623018Y-186854092D02*
G75*
G03*
X397672520Y-187070969I500018J42D01*
G01*
X427906069Y-204667157D02*
X427906069Y-206072841D01*
X428811616Y-206869999D02*
X430400520Y-206869999D01*
X430400520Y-203870000D02*
X428811615Y-203870000D01*
X431306067Y-206072841D02*
X431306067Y-204667157D01*
X427906068Y-204667156D02*
G75*
G03*
X427856583Y-204450279I-499989J1D01*
G01*
X428559357Y-203801701D02*
G75*
G03*
X427856585Y-204450279I-252258J-431700D01*
G01*
X427856584Y-206289719D02*
G75*
G03*
X427906069Y-206072841I-450505J216876D01*
G01*
X427856585Y-206289718D02*
G75*
G03*
X428559357Y-206938298I450513J-216880D01*
G01*
X428811616Y-206869999D02*
G75*
G03*
X428559357Y-206938298I2J-500009D01*
G01*
X428559357Y-203801701D02*
G75*
G03*
X428811615Y-203870000I252261J431710D01*
G01*
X430652778Y-206938297D02*
G75*
G03*
X430400520Y-206869999I-252260J-431713D01*
G01*
X430400521Y-203869999D02*
G75*
G03*
X430652779Y-203801700I-3J500009D01*
G01*
X431355552Y-204450279D02*
G75*
G03*
X430652779Y-203801700I-450514J216879D01*
G01*
X431355554Y-204450280D02*
G75*
G03*
X431306067Y-204667157I450504J-216880D01*
G01*
X430652779Y-206938296D02*
G75*
G03*
X431355552Y-206289719I252258J431700D01*
G01*
X431306050Y-206072842D02*
G75*
G03*
X431355552Y-206289719I500018J42D01*
G01*
X451898037Y-204667157D02*
X451898037Y-206072841D01*
X452803584Y-206869999D02*
X454392488Y-206869999D01*
X454392488Y-203870000D02*
X452803583Y-203870000D01*
X455298035Y-206072841D02*
X455298035Y-204667157D01*
X451898036Y-204667156D02*
G75*
G03*
X451848551Y-204450279I-499989J1D01*
G01*
X452551325Y-203801701D02*
G75*
G03*
X451848553Y-204450279I-252258J-431700D01*
G01*
X451848552Y-206289719D02*
G75*
G03*
X451898037Y-206072841I-450505J216876D01*
G01*
X451848553Y-206289718D02*
G75*
G03*
X452551325Y-206938298I450513J-216880D01*
G01*
X452803584Y-206869999D02*
G75*
G03*
X452551325Y-206938298I2J-500009D01*
G01*
X452551325Y-203801701D02*
G75*
G03*
X452803583Y-203870000I252261J431710D01*
G01*
X454644746Y-206938297D02*
G75*
G03*
X454392488Y-206869999I-252260J-431713D01*
G01*
X454392489Y-203869999D02*
G75*
G03*
X454644747Y-203801700I-3J500009D01*
G01*
X455347520Y-204450279D02*
G75*
G03*
X454644747Y-203801700I-450514J216879D01*
G01*
X455347522Y-204450280D02*
G75*
G03*
X455298035Y-204667157I450504J-216880D01*
G01*
X454644747Y-206938296D02*
G75*
G03*
X455347520Y-206289719I252258J431700D01*
G01*
X455298018Y-206072842D02*
G75*
G03*
X455347520Y-206289719I500018J42D01*
G01*
X451888037Y-223882157D02*
X451888037Y-225287841D01*
X452793584Y-226084999D02*
X454382488Y-226084999D01*
X454382488Y-223085000D02*
X452793583Y-223085000D01*
X455288035Y-225287841D02*
X455288035Y-223882157D01*
X451888036Y-223882156D02*
G75*
G03*
X451838551Y-223665279I-499989J1D01*
G01*
X452541325Y-223016701D02*
G75*
G03*
X451838553Y-223665279I-252258J-431700D01*
G01*
X451838552Y-225504719D02*
G75*
G03*
X451888037Y-225287841I-450505J216876D01*
G01*
X451838553Y-225504718D02*
G75*
G03*
X452541325Y-226153298I450513J-216880D01*
G01*
X452793584Y-226084999D02*
G75*
G03*
X452541325Y-226153298I2J-500009D01*
G01*
X452541325Y-223016701D02*
G75*
G03*
X452793583Y-223085000I252261J431710D01*
G01*
X454634746Y-226153297D02*
G75*
G03*
X454382488Y-226084999I-252260J-431713D01*
G01*
X454382489Y-223084999D02*
G75*
G03*
X454634747Y-223016700I-3J500009D01*
G01*
X455337520Y-223665279D02*
G75*
G03*
X454634747Y-223016700I-450514J216879D01*
G01*
X455337522Y-223665280D02*
G75*
G03*
X455288035Y-223882157I450504J-216880D01*
G01*
X454634747Y-226153296D02*
G75*
G03*
X455337520Y-225504719I252258J431700D01*
G01*
X455288018Y-225287842D02*
G75*
G03*
X455337520Y-225504719I500018J42D01*
G01*
X365455744Y-204667157D02*
X365455744Y-206072841D01*
X366361291Y-206869999D02*
X367950195Y-206869999D01*
X367950195Y-203870000D02*
X366361290Y-203870000D01*
X368855742Y-206072841D02*
X368855742Y-204667157D01*
X365455743Y-204667156D02*
G75*
G03*
X365406258Y-204450279I-499989J1D01*
G01*
X366109032Y-203801701D02*
G75*
G03*
X365406260Y-204450279I-252258J-431700D01*
G01*
X365406259Y-206289719D02*
G75*
G03*
X365455744Y-206072841I-450505J216876D01*
G01*
X365406260Y-206289718D02*
G75*
G03*
X366109032Y-206938298I450513J-216880D01*
G01*
X366361291Y-206869999D02*
G75*
G03*
X366109032Y-206938298I2J-500009D01*
G01*
X366109032Y-203801701D02*
G75*
G03*
X366361290Y-203870000I252261J431710D01*
G01*
X368202453Y-206938297D02*
G75*
G03*
X367950195Y-206869999I-252260J-431713D01*
G01*
X367950196Y-203869999D02*
G75*
G03*
X368202454Y-203801700I-3J500009D01*
G01*
X368905227Y-204450279D02*
G75*
G03*
X368202454Y-203801700I-450514J216879D01*
G01*
X368905229Y-204450280D02*
G75*
G03*
X368855742Y-204667157I450504J-216880D01*
G01*
X368202454Y-206938296D02*
G75*
G03*
X368905227Y-206289719I252258J431700D01*
G01*
X368855725Y-206072842D02*
G75*
G03*
X368905227Y-206289719I500018J42D01*
G01*
X346226199Y-204667157D02*
X346226199Y-206072841D01*
X347131746Y-206869999D02*
X348720650Y-206869999D01*
X348720650Y-203870000D02*
X347131745Y-203870000D01*
X349626197Y-206072841D02*
X349626197Y-204667157D01*
X346226198Y-204667156D02*
G75*
G03*
X346176713Y-204450279I-499989J1D01*
G01*
X346879487Y-203801701D02*
G75*
G03*
X346176715Y-204450279I-252258J-431700D01*
G01*
X346176714Y-206289719D02*
G75*
G03*
X346226199Y-206072841I-450505J216876D01*
G01*
X346176715Y-206289718D02*
G75*
G03*
X346879487Y-206938298I450513J-216880D01*
G01*
X347131746Y-206869999D02*
G75*
G03*
X346879487Y-206938298I2J-500009D01*
G01*
X346879487Y-203801701D02*
G75*
G03*
X347131745Y-203870000I252261J431710D01*
G01*
X348972908Y-206938297D02*
G75*
G03*
X348720650Y-206869999I-252260J-431713D01*
G01*
X348720651Y-203869999D02*
G75*
G03*
X348972909Y-203801700I-3J500009D01*
G01*
X349675682Y-204450279D02*
G75*
G03*
X348972909Y-203801700I-450514J216879D01*
G01*
X349675684Y-204450280D02*
G75*
G03*
X349626197Y-204667157I450504J-216880D01*
G01*
X348972909Y-206938296D02*
G75*
G03*
X349675682Y-206289719I252258J431700D01*
G01*
X349626180Y-206072842D02*
G75*
G03*
X349675682Y-206289719I500018J42D01*
G01*
X302888662Y-243082157D02*
X302888662Y-244487841D01*
X303794209Y-245284999D02*
X305383113Y-245284999D01*
X305383113Y-242285000D02*
X303794208Y-242285000D01*
X306288660Y-244487841D02*
X306288660Y-243082157D01*
X302888661Y-243082156D02*
G75*
G03*
X302839176Y-242865279I-499989J1D01*
G01*
X303541950Y-242216701D02*
G75*
G03*
X302839178Y-242865279I-252258J-431700D01*
G01*
X302839177Y-244704719D02*
G75*
G03*
X302888662Y-244487841I-450505J216876D01*
G01*
X302839178Y-244704718D02*
G75*
G03*
X303541950Y-245353298I450513J-216880D01*
G01*
X303794209Y-245284999D02*
G75*
G03*
X303541950Y-245353298I2J-500009D01*
G01*
X303541950Y-242216701D02*
G75*
G03*
X303794208Y-242285000I252261J431710D01*
G01*
X305635371Y-245353297D02*
G75*
G03*
X305383113Y-245284999I-252260J-431713D01*
G01*
X305383114Y-242284999D02*
G75*
G03*
X305635372Y-242216700I-3J500009D01*
G01*
X306338145Y-242865279D02*
G75*
G03*
X305635372Y-242216700I-450514J216879D01*
G01*
X306338147Y-242865280D02*
G75*
G03*
X306288660Y-243082157I450504J-216880D01*
G01*
X305635372Y-245353296D02*
G75*
G03*
X306338145Y-244704719I252258J431700D01*
G01*
X306288643Y-244487842D02*
G75*
G03*
X306338145Y-244704719I500018J42D01*
G01*
X375006363Y-185448407D02*
X375006363Y-186854091D01*
X375911910Y-187651249D02*
X377500814Y-187651249D01*
X377500814Y-184651250D02*
X375911909Y-184651250D01*
X378406361Y-186854091D02*
X378406361Y-185448407D01*
X375006362Y-185448406D02*
G75*
G03*
X374956877Y-185231529I-499989J1D01*
G01*
X375659651Y-184582951D02*
G75*
G03*
X374956879Y-185231529I-252258J-431700D01*
G01*
X374956878Y-187070969D02*
G75*
G03*
X375006363Y-186854091I-450505J216876D01*
G01*
X374956879Y-187070968D02*
G75*
G03*
X375659651Y-187719548I450513J-216880D01*
G01*
X375911910Y-187651249D02*
G75*
G03*
X375659651Y-187719548I2J-500009D01*
G01*
X375659651Y-184582951D02*
G75*
G03*
X375911909Y-184651250I252261J431710D01*
G01*
X377753072Y-187719547D02*
G75*
G03*
X377500814Y-187651249I-252260J-431713D01*
G01*
X377500815Y-184651249D02*
G75*
G03*
X377753073Y-184582950I-3J500009D01*
G01*
X378455846Y-185231529D02*
G75*
G03*
X377753073Y-184582950I-450514J216879D01*
G01*
X378455848Y-185231530D02*
G75*
G03*
X378406361Y-185448407I450504J-216880D01*
G01*
X377753073Y-187719546D02*
G75*
G03*
X378455846Y-187070969I252258J431700D01*
G01*
X378406344Y-186854092D02*
G75*
G03*
X378455846Y-187070969I500018J42D01*
G01*
X322136787Y-243082157D02*
X322136787Y-244487841D01*
X323042334Y-245284999D02*
X324631238Y-245284999D01*
X324631238Y-242285000D02*
X323042333Y-242285000D01*
X325536785Y-244487841D02*
X325536785Y-243082157D01*
X322136786Y-243082156D02*
G75*
G03*
X322087301Y-242865279I-499989J1D01*
G01*
X322790075Y-242216701D02*
G75*
G03*
X322087303Y-242865279I-252258J-431700D01*
G01*
X322087302Y-244704719D02*
G75*
G03*
X322136787Y-244487841I-450505J216876D01*
G01*
X322087303Y-244704718D02*
G75*
G03*
X322790075Y-245353298I450513J-216880D01*
G01*
X323042334Y-245284999D02*
G75*
G03*
X322790075Y-245353298I2J-500009D01*
G01*
X322790075Y-242216701D02*
G75*
G03*
X323042333Y-242285000I252261J431710D01*
G01*
X324883496Y-245353297D02*
G75*
G03*
X324631238Y-245284999I-252260J-431713D01*
G01*
X324631239Y-242284999D02*
G75*
G03*
X324883497Y-242216700I-3J500009D01*
G01*
X325586270Y-242865279D02*
G75*
G03*
X324883497Y-242216700I-450514J216879D01*
G01*
X325586272Y-242865280D02*
G75*
G03*
X325536785Y-243082157I450504J-216880D01*
G01*
X324883497Y-245353296D02*
G75*
G03*
X325586270Y-244704719I252258J431700D01*
G01*
X325536768Y-244487842D02*
G75*
G03*
X325586270Y-244704719I500018J42D01*
G01*
X341384912Y-243082157D02*
X341384912Y-244487841D01*
X342290459Y-245284999D02*
X343879363Y-245284999D01*
X343879363Y-242285000D02*
X342290458Y-242285000D01*
X344784910Y-244487841D02*
X344784910Y-243082157D01*
X341384911Y-243082156D02*
G75*
G03*
X341335426Y-242865279I-499989J1D01*
G01*
X342038200Y-242216701D02*
G75*
G03*
X341335428Y-242865279I-252258J-431700D01*
G01*
X341335427Y-244704719D02*
G75*
G03*
X341384912Y-244487841I-450505J216876D01*
G01*
X341335428Y-244704718D02*
G75*
G03*
X342038200Y-245353298I450513J-216880D01*
G01*
X342290459Y-245284999D02*
G75*
G03*
X342038200Y-245353298I2J-500009D01*
G01*
X342038200Y-242216701D02*
G75*
G03*
X342290458Y-242285000I252261J431710D01*
G01*
X344131621Y-245353297D02*
G75*
G03*
X343879363Y-245284999I-252260J-431713D01*
G01*
X343879364Y-242284999D02*
G75*
G03*
X344131622Y-242216700I-3J500009D01*
G01*
X344834395Y-242865279D02*
G75*
G03*
X344131622Y-242216700I-450514J216879D01*
G01*
X344834397Y-242865280D02*
G75*
G03*
X344784910Y-243082157I450504J-216880D01*
G01*
X344131622Y-245353296D02*
G75*
G03*
X344834395Y-244704719I252258J431700D01*
G01*
X344784893Y-244487842D02*
G75*
G03*
X344834395Y-244704719I500018J42D01*
G01*
X175554287Y-243077157D02*
X175554287Y-244482841D01*
X176459834Y-245279999D02*
X178048738Y-245279999D01*
X178048738Y-242280000D02*
X176459833Y-242280000D01*
X178954285Y-244482841D02*
X178954285Y-243077157D01*
X175554286Y-243077156D02*
G75*
G03*
X175504801Y-242860279I-499989J1D01*
G01*
X176207575Y-242211701D02*
G75*
G03*
X175504803Y-242860279I-252258J-431700D01*
G01*
X175504802Y-244699719D02*
G75*
G03*
X175554287Y-244482841I-450505J216876D01*
G01*
X175504803Y-244699718D02*
G75*
G03*
X176207575Y-245348298I450513J-216880D01*
G01*
X176459834Y-245279999D02*
G75*
G03*
X176207575Y-245348298I2J-500009D01*
G01*
X176207575Y-242211701D02*
G75*
G03*
X176459833Y-242280000I252261J431710D01*
G01*
X178300996Y-245348297D02*
G75*
G03*
X178048738Y-245279999I-252260J-431713D01*
G01*
X178048739Y-242279999D02*
G75*
G03*
X178300997Y-242211700I-3J500009D01*
G01*
X179003770Y-242860279D02*
G75*
G03*
X178300997Y-242211700I-450514J216879D01*
G01*
X179003772Y-242860280D02*
G75*
G03*
X178954285Y-243077157I450504J-216880D01*
G01*
X178300997Y-245348296D02*
G75*
G03*
X179003770Y-244699719I252258J431700D01*
G01*
X178954268Y-244482842D02*
G75*
G03*
X179003770Y-244699719I500018J42D01*
G01*
X413236645Y-262272157D02*
X413236645Y-263677841D01*
X414142192Y-264474999D02*
X415731096Y-264474999D01*
X415731096Y-261475000D02*
X414142191Y-261475000D01*
X416636643Y-263677841D02*
X416636643Y-262272157D01*
X413236644Y-262272156D02*
G75*
G03*
X413187159Y-262055279I-499989J1D01*
G01*
X413889933Y-261406701D02*
G75*
G03*
X413187161Y-262055279I-252258J-431700D01*
G01*
X413187160Y-263894719D02*
G75*
G03*
X413236645Y-263677841I-450505J216876D01*
G01*
X413187161Y-263894718D02*
G75*
G03*
X413889933Y-264543298I450513J-216880D01*
G01*
X414142192Y-264474999D02*
G75*
G03*
X413889933Y-264543298I2J-500009D01*
G01*
X413889933Y-261406701D02*
G75*
G03*
X414142191Y-261475000I252261J431710D01*
G01*
X415983354Y-264543297D02*
G75*
G03*
X415731096Y-264474999I-252260J-431713D01*
G01*
X415731097Y-261474999D02*
G75*
G03*
X415983355Y-261406700I-3J500009D01*
G01*
X416686128Y-262055279D02*
G75*
G03*
X415983355Y-261406700I-450514J216879D01*
G01*
X416686130Y-262055280D02*
G75*
G03*
X416636643Y-262272157I450504J-216880D01*
G01*
X415983355Y-264543296D02*
G75*
G03*
X416686128Y-263894719I252258J431700D01*
G01*
X416636626Y-263677842D02*
G75*
G03*
X416686128Y-263894719I500018J42D01*
G01*
X384685289Y-204667157D02*
X384685289Y-206072841D01*
X385590836Y-206869999D02*
X387179740Y-206869999D01*
X387179740Y-203870000D02*
X385590835Y-203870000D01*
X388085287Y-206072841D02*
X388085287Y-204667157D01*
X384685288Y-204667156D02*
G75*
G03*
X384635803Y-204450279I-499989J1D01*
G01*
X385338577Y-203801701D02*
G75*
G03*
X384635805Y-204450279I-252258J-431700D01*
G01*
X384635804Y-206289719D02*
G75*
G03*
X384685289Y-206072841I-450505J216876D01*
G01*
X384635805Y-206289718D02*
G75*
G03*
X385338577Y-206938298I450513J-216880D01*
G01*
X385590836Y-206869999D02*
G75*
G03*
X385338577Y-206938298I2J-500009D01*
G01*
X385338577Y-203801701D02*
G75*
G03*
X385590835Y-203870000I252261J431710D01*
G01*
X387431998Y-206938297D02*
G75*
G03*
X387179740Y-206869999I-252260J-431713D01*
G01*
X387179741Y-203869999D02*
G75*
G03*
X387431999Y-203801700I-3J500009D01*
G01*
X388134772Y-204450279D02*
G75*
G03*
X387431999Y-203801700I-450514J216879D01*
G01*
X388134774Y-204450280D02*
G75*
G03*
X388085287Y-204667157I450504J-216880D01*
G01*
X387431999Y-206938296D02*
G75*
G03*
X388134772Y-206289719I252258J431700D01*
G01*
X388085270Y-206072842D02*
G75*
G03*
X388134772Y-206289719I500018J42D01*
G01*
X166038037Y-262272157D02*
X166038037Y-263677841D01*
X166943584Y-264474999D02*
X168532488Y-264474999D01*
X168532488Y-261475000D02*
X166943583Y-261475000D01*
X169438035Y-263677841D02*
X169438035Y-262272157D01*
X166038036Y-262272156D02*
G75*
G03*
X165988551Y-262055279I-499989J1D01*
G01*
X166691325Y-261406701D02*
G75*
G03*
X165988553Y-262055279I-252258J-431700D01*
G01*
X165988552Y-263894719D02*
G75*
G03*
X166038037Y-263677841I-450505J216876D01*
G01*
X165988553Y-263894718D02*
G75*
G03*
X166691325Y-264543298I450513J-216880D01*
G01*
X166943584Y-264474999D02*
G75*
G03*
X166691325Y-264543298I2J-500009D01*
G01*
X166691325Y-261406701D02*
G75*
G03*
X166943583Y-261475000I252261J431710D01*
G01*
X168784746Y-264543297D02*
G75*
G03*
X168532488Y-264474999I-252260J-431713D01*
G01*
X168532489Y-261474999D02*
G75*
G03*
X168784747Y-261406700I-3J500009D01*
G01*
X169487520Y-262055279D02*
G75*
G03*
X168784747Y-261406700I-450514J216879D01*
G01*
X169487522Y-262055280D02*
G75*
G03*
X169438035Y-262272157I450504J-216880D01*
G01*
X168784747Y-264543296D02*
G75*
G03*
X169487520Y-263894719I252258J431700D01*
G01*
X169438018Y-263677842D02*
G75*
G03*
X169487520Y-263894719I500018J42D01*
G01*
X214214425Y-262272157D02*
X214214425Y-263677841D01*
X215119972Y-264474999D02*
X216708876Y-264474999D01*
X216708876Y-261475000D02*
X215119971Y-261475000D01*
X217614423Y-263677841D02*
X217614423Y-262272157D01*
X214214424Y-262272156D02*
G75*
G03*
X214164939Y-262055279I-499989J1D01*
G01*
X214867713Y-261406701D02*
G75*
G03*
X214164941Y-262055279I-252258J-431700D01*
G01*
X214164940Y-263894719D02*
G75*
G03*
X214214425Y-263677841I-450505J216876D01*
G01*
X214164941Y-263894718D02*
G75*
G03*
X214867713Y-264543298I450513J-216880D01*
G01*
X215119972Y-264474999D02*
G75*
G03*
X214867713Y-264543298I2J-500009D01*
G01*
X214867713Y-261406701D02*
G75*
G03*
X215119971Y-261475000I252261J431710D01*
G01*
X216961134Y-264543297D02*
G75*
G03*
X216708876Y-264474999I-252260J-431713D01*
G01*
X216708877Y-261474999D02*
G75*
G03*
X216961135Y-261406700I-3J500009D01*
G01*
X217663908Y-262055279D02*
G75*
G03*
X216961135Y-261406700I-450514J216879D01*
G01*
X217663910Y-262055280D02*
G75*
G03*
X217614423Y-262272157I450504J-216880D01*
G01*
X216961135Y-264543296D02*
G75*
G03*
X217663908Y-263894719I252258J431700D01*
G01*
X217614406Y-263677842D02*
G75*
G03*
X217663908Y-263894719I500018J42D01*
G01*
X351186899Y-223872157D02*
X351186899Y-225277841D01*
X352092446Y-226074999D02*
X353681350Y-226074999D01*
X353681350Y-223075000D02*
X352092445Y-223075000D01*
X354586897Y-225277841D02*
X354586897Y-223872157D01*
X351186898Y-223872156D02*
G75*
G03*
X351137413Y-223655279I-499989J1D01*
G01*
X351840187Y-223006701D02*
G75*
G03*
X351137415Y-223655279I-252258J-431700D01*
G01*
X351137414Y-225494719D02*
G75*
G03*
X351186899Y-225277841I-450505J216876D01*
G01*
X351137415Y-225494718D02*
G75*
G03*
X351840187Y-226143298I450513J-216880D01*
G01*
X352092446Y-226074999D02*
G75*
G03*
X351840187Y-226143298I2J-500009D01*
G01*
X351840187Y-223006701D02*
G75*
G03*
X352092445Y-223075000I252261J431710D01*
G01*
X353933608Y-226143297D02*
G75*
G03*
X353681350Y-226074999I-252260J-431713D01*
G01*
X353681351Y-223074999D02*
G75*
G03*
X353933609Y-223006700I-3J500009D01*
G01*
X354636382Y-223655279D02*
G75*
G03*
X353933609Y-223006700I-450514J216879D01*
G01*
X354636384Y-223655280D02*
G75*
G03*
X354586897Y-223872157I450504J-216880D01*
G01*
X353933609Y-226143296D02*
G75*
G03*
X354636382Y-225494719I252258J431700D01*
G01*
X354586880Y-225277842D02*
G75*
G03*
X354636382Y-225494719I500018J42D01*
G01*
X331936331Y-223872157D02*
X331936331Y-225277841D01*
X332841878Y-226074999D02*
X334430782Y-226074999D01*
X334430782Y-223075000D02*
X332841877Y-223075000D01*
X335336329Y-225277841D02*
X335336329Y-223872157D01*
X331936330Y-223872156D02*
G75*
G03*
X331886845Y-223655279I-499989J1D01*
G01*
X332589619Y-223006701D02*
G75*
G03*
X331886847Y-223655279I-252258J-431700D01*
G01*
X331886846Y-225494719D02*
G75*
G03*
X331936331Y-225277841I-450505J216876D01*
G01*
X331886847Y-225494718D02*
G75*
G03*
X332589619Y-226143298I450513J-216880D01*
G01*
X332841878Y-226074999D02*
G75*
G03*
X332589619Y-226143298I2J-500009D01*
G01*
X332589619Y-223006701D02*
G75*
G03*
X332841877Y-223075000I252261J431710D01*
G01*
X334683040Y-226143297D02*
G75*
G03*
X334430782Y-226074999I-252260J-431713D01*
G01*
X334430783Y-223074999D02*
G75*
G03*
X334683041Y-223006700I-3J500009D01*
G01*
X335385814Y-223655279D02*
G75*
G03*
X334683041Y-223006700I-450514J216879D01*
G01*
X335385816Y-223655280D02*
G75*
G03*
X335336329Y-223872157I450504J-216880D01*
G01*
X334683041Y-226143296D02*
G75*
G03*
X335385814Y-225494719I252258J431700D01*
G01*
X335336312Y-225277842D02*
G75*
G03*
X335385814Y-225494719I500018J42D01*
G01*
X312685763Y-223872157D02*
X312685763Y-225277841D01*
X313591310Y-226074999D02*
X315180214Y-226074999D01*
X315180214Y-223075000D02*
X313591309Y-223075000D01*
X316085761Y-225277841D02*
X316085761Y-223872157D01*
X312685762Y-223872156D02*
G75*
G03*
X312636277Y-223655279I-499989J1D01*
G01*
X313339051Y-223006701D02*
G75*
G03*
X312636279Y-223655279I-252258J-431700D01*
G01*
X312636278Y-225494719D02*
G75*
G03*
X312685763Y-225277841I-450505J216876D01*
G01*
X312636279Y-225494718D02*
G75*
G03*
X313339051Y-226143298I450513J-216880D01*
G01*
X313591310Y-226074999D02*
G75*
G03*
X313339051Y-226143298I2J-500009D01*
G01*
X313339051Y-223006701D02*
G75*
G03*
X313591309Y-223075000I252261J431710D01*
G01*
X315432472Y-226143297D02*
G75*
G03*
X315180214Y-226074999I-252260J-431713D01*
G01*
X315180215Y-223074999D02*
G75*
G03*
X315432473Y-223006700I-3J500009D01*
G01*
X316135246Y-223655279D02*
G75*
G03*
X315432473Y-223006700I-450514J216879D01*
G01*
X316135248Y-223655280D02*
G75*
G03*
X316085761Y-223872157I450504J-216880D01*
G01*
X315432473Y-226143296D02*
G75*
G03*
X316135246Y-225494719I252258J431700D01*
G01*
X316085744Y-225277842D02*
G75*
G03*
X316135246Y-225494719I500018J42D01*
G01*
X326996654Y-204667157D02*
X326996654Y-206072841D01*
X327902201Y-206869999D02*
X329491105Y-206869999D01*
X329491105Y-203870000D02*
X327902200Y-203870000D01*
X330396652Y-206072841D02*
X330396652Y-204667157D01*
X326996653Y-204667156D02*
G75*
G03*
X326947168Y-204450279I-499989J1D01*
G01*
X327649942Y-203801701D02*
G75*
G03*
X326947170Y-204450279I-252258J-431700D01*
G01*
X326947169Y-206289719D02*
G75*
G03*
X326996654Y-206072841I-450505J216876D01*
G01*
X326947170Y-206289718D02*
G75*
G03*
X327649942Y-206938298I450513J-216880D01*
G01*
X327902201Y-206869999D02*
G75*
G03*
X327649942Y-206938298I2J-500009D01*
G01*
X327649942Y-203801701D02*
G75*
G03*
X327902200Y-203870000I252261J431710D01*
G01*
X329743363Y-206938297D02*
G75*
G03*
X329491105Y-206869999I-252260J-431713D01*
G01*
X329491106Y-203869999D02*
G75*
G03*
X329743364Y-203801700I-3J500009D01*
G01*
X330446137Y-204450279D02*
G75*
G03*
X329743364Y-203801700I-450514J216879D01*
G01*
X330446139Y-204450280D02*
G75*
G03*
X330396652Y-204667157I450504J-216880D01*
G01*
X329743364Y-206938296D02*
G75*
G03*
X330446137Y-206289719I252258J431700D01*
G01*
X330396635Y-206072842D02*
G75*
G03*
X330446137Y-206289719I500018J42D01*
G01*
X451888037Y-185447157D02*
X451888037Y-186852841D01*
X452793584Y-187649999D02*
X454382488Y-187649999D01*
X454382488Y-184650000D02*
X452793583Y-184650000D01*
X455288035Y-186852841D02*
X455288035Y-185447157D01*
X451888036Y-185447156D02*
G75*
G03*
X451838551Y-185230279I-499989J1D01*
G01*
X452541325Y-184581701D02*
G75*
G03*
X451838553Y-185230279I-252258J-431700D01*
G01*
X451838552Y-187069719D02*
G75*
G03*
X451888037Y-186852841I-450505J216876D01*
G01*
X451838553Y-187069718D02*
G75*
G03*
X452541325Y-187718298I450513J-216880D01*
G01*
X452793584Y-187649999D02*
G75*
G03*
X452541325Y-187718298I2J-500009D01*
G01*
X452541325Y-184581701D02*
G75*
G03*
X452793583Y-184650000I252261J431710D01*
G01*
X454634746Y-187718297D02*
G75*
G03*
X454382488Y-187649999I-252260J-431713D01*
G01*
X454382489Y-184649999D02*
G75*
G03*
X454634747Y-184581700I-3J500009D01*
G01*
X455337520Y-185230279D02*
G75*
G03*
X454634747Y-184581700I-450514J216879D01*
G01*
X455337522Y-185230280D02*
G75*
G03*
X455288035Y-185447157I450504J-216880D01*
G01*
X454634747Y-187718296D02*
G75*
G03*
X455337520Y-187069719I252258J431700D01*
G01*
X455288018Y-186852842D02*
G75*
G03*
X455337520Y-187069719I500018J42D01*
G01*
X293435195Y-223872157D02*
X293435195Y-225277841D01*
X294340742Y-226074999D02*
X295929646Y-226074999D01*
X295929646Y-223075000D02*
X294340741Y-223075000D01*
X296835193Y-225277841D02*
X296835193Y-223872157D01*
X293435194Y-223872156D02*
G75*
G03*
X293385709Y-223655279I-499989J1D01*
G01*
X294088483Y-223006701D02*
G75*
G03*
X293385711Y-223655279I-252258J-431700D01*
G01*
X293385710Y-225494719D02*
G75*
G03*
X293435195Y-225277841I-450505J216876D01*
G01*
X293385711Y-225494718D02*
G75*
G03*
X294088483Y-226143298I450513J-216880D01*
G01*
X294340742Y-226074999D02*
G75*
G03*
X294088483Y-226143298I2J-500009D01*
G01*
X294088483Y-223006701D02*
G75*
G03*
X294340741Y-223075000I252261J431710D01*
G01*
X296181904Y-226143297D02*
G75*
G03*
X295929646Y-226074999I-252260J-431713D01*
G01*
X295929647Y-223074999D02*
G75*
G03*
X296181905Y-223006700I-3J500009D01*
G01*
X296884678Y-223655279D02*
G75*
G03*
X296181905Y-223006700I-450514J216879D01*
G01*
X296884680Y-223655280D02*
G75*
G03*
X296835193Y-223872157I450504J-216880D01*
G01*
X296181905Y-226143296D02*
G75*
G03*
X296884678Y-225494719I252258J431700D01*
G01*
X296835176Y-225277842D02*
G75*
G03*
X296884678Y-225494719I500018J42D01*
G01*
X360633037Y-243082157D02*
X360633037Y-244487841D01*
X361538584Y-245284999D02*
X363127488Y-245284999D01*
X363127488Y-242285000D02*
X361538583Y-242285000D01*
X364033035Y-244487841D02*
X364033035Y-243082157D01*
X360633036Y-243082156D02*
G75*
G03*
X360583551Y-242865279I-499989J1D01*
G01*
X361286325Y-242216701D02*
G75*
G03*
X360583553Y-242865279I-252258J-431700D01*
G01*
X360583552Y-244704719D02*
G75*
G03*
X360633037Y-244487841I-450505J216876D01*
G01*
X360583553Y-244704718D02*
G75*
G03*
X361286325Y-245353298I450513J-216880D01*
G01*
X361538584Y-245284999D02*
G75*
G03*
X361286325Y-245353298I2J-500009D01*
G01*
X361286325Y-242216701D02*
G75*
G03*
X361538583Y-242285000I252261J431710D01*
G01*
X363379746Y-245353297D02*
G75*
G03*
X363127488Y-245284999I-252260J-431713D01*
G01*
X363127489Y-242284999D02*
G75*
G03*
X363379747Y-242216700I-3J500009D01*
G01*
X364082520Y-242865279D02*
G75*
G03*
X363379747Y-242216700I-450514J216879D01*
G01*
X364082522Y-242865280D02*
G75*
G03*
X364033035Y-243082157I450504J-216880D01*
G01*
X363379747Y-245353296D02*
G75*
G03*
X364082520Y-244704719I252258J431700D01*
G01*
X364033018Y-244487842D02*
G75*
G03*
X364082520Y-244704719I500018J42D01*
G01*
X274184627Y-223872157D02*
X274184627Y-225277841D01*
X275090174Y-226074999D02*
X276679078Y-226074999D01*
X276679078Y-223075000D02*
X275090173Y-223075000D01*
X277584625Y-225277841D02*
X277584625Y-223872157D01*
X274184626Y-223872156D02*
G75*
G03*
X274135141Y-223655279I-499989J1D01*
G01*
X274837915Y-223006701D02*
G75*
G03*
X274135143Y-223655279I-252258J-431700D01*
G01*
X274135142Y-225494719D02*
G75*
G03*
X274184627Y-225277841I-450505J216876D01*
G01*
X274135143Y-225494718D02*
G75*
G03*
X274837915Y-226143298I450513J-216880D01*
G01*
X275090174Y-226074999D02*
G75*
G03*
X274837915Y-226143298I2J-500009D01*
G01*
X274837915Y-223006701D02*
G75*
G03*
X275090173Y-223075000I252261J431710D01*
G01*
X276931336Y-226143297D02*
G75*
G03*
X276679078Y-226074999I-252260J-431713D01*
G01*
X276679079Y-223074999D02*
G75*
G03*
X276931337Y-223006700I-3J500009D01*
G01*
X277634110Y-223655279D02*
G75*
G03*
X276931337Y-223006700I-450514J216879D01*
G01*
X277634112Y-223655280D02*
G75*
G03*
X277584625Y-223872157I450504J-216880D01*
G01*
X276931337Y-226143296D02*
G75*
G03*
X277634110Y-225494719I252258J431700D01*
G01*
X277584608Y-225277842D02*
G75*
G03*
X277634110Y-225494719I500018J42D01*
G01*
X374585257Y-262272157D02*
X374585257Y-263677841D01*
X375490804Y-264474999D02*
X377079708Y-264474999D01*
X377079708Y-261475000D02*
X375490803Y-261475000D01*
X377985255Y-263677841D02*
X377985255Y-262272157D01*
X374585256Y-262272156D02*
G75*
G03*
X374535771Y-262055279I-499989J1D01*
G01*
X375238545Y-261406701D02*
G75*
G03*
X374535773Y-262055279I-252258J-431700D01*
G01*
X374535772Y-263894719D02*
G75*
G03*
X374585257Y-263677841I-450505J216876D01*
G01*
X374535773Y-263894718D02*
G75*
G03*
X375238545Y-264543298I450513J-216880D01*
G01*
X375490804Y-264474999D02*
G75*
G03*
X375238545Y-264543298I2J-500009D01*
G01*
X375238545Y-261406701D02*
G75*
G03*
X375490803Y-261475000I252261J431710D01*
G01*
X377331966Y-264543297D02*
G75*
G03*
X377079708Y-264474999I-252260J-431713D01*
G01*
X377079709Y-261474999D02*
G75*
G03*
X377331967Y-261406700I-3J500009D01*
G01*
X378034740Y-262055279D02*
G75*
G03*
X377331967Y-261406700I-450514J216879D01*
G01*
X378034742Y-262055280D02*
G75*
G03*
X377985255Y-262272157I450504J-216880D01*
G01*
X377331967Y-264543296D02*
G75*
G03*
X378034740Y-263894719I252258J431700D01*
G01*
X377985238Y-263677842D02*
G75*
G03*
X378034740Y-263894719I500018J42D01*
G01*
X254934059Y-223872157D02*
X254934059Y-225277841D01*
X255839606Y-226074999D02*
X257428510Y-226074999D01*
X257428510Y-223075000D02*
X255839605Y-223075000D01*
X258334057Y-225277841D02*
X258334057Y-223872157D01*
X254934058Y-223872156D02*
G75*
G03*
X254884573Y-223655279I-499989J1D01*
G01*
X255587347Y-223006701D02*
G75*
G03*
X254884575Y-223655279I-252258J-431700D01*
G01*
X254884574Y-225494719D02*
G75*
G03*
X254934059Y-225277841I-450505J216876D01*
G01*
X254884575Y-225494718D02*
G75*
G03*
X255587347Y-226143298I450513J-216880D01*
G01*
X255839606Y-226074999D02*
G75*
G03*
X255587347Y-226143298I2J-500009D01*
G01*
X255587347Y-223006701D02*
G75*
G03*
X255839605Y-223075000I252261J431710D01*
G01*
X257680768Y-226143297D02*
G75*
G03*
X257428510Y-226074999I-252260J-431713D01*
G01*
X257428511Y-223074999D02*
G75*
G03*
X257680769Y-223006700I-3J500009D01*
G01*
X258383542Y-223655279D02*
G75*
G03*
X257680769Y-223006700I-450514J216879D01*
G01*
X258383544Y-223655280D02*
G75*
G03*
X258334057Y-223872157I450504J-216880D01*
G01*
X257680769Y-226143296D02*
G75*
G03*
X258383542Y-225494719I252258J431700D01*
G01*
X258334040Y-225277842D02*
G75*
G03*
X258383542Y-225494719I500018J42D01*
G01*
X394248037Y-166229657D02*
X394248037Y-167635341D01*
X395153584Y-168432499D02*
X396742488Y-168432499D01*
X396742488Y-165432500D02*
X395153583Y-165432500D01*
X397648035Y-167635341D02*
X397648035Y-166229657D01*
X394248036Y-166229656D02*
G75*
G03*
X394198551Y-166012779I-499989J1D01*
G01*
X394901325Y-165364201D02*
G75*
G03*
X394198553Y-166012779I-252258J-431700D01*
G01*
X394198552Y-167852219D02*
G75*
G03*
X394248037Y-167635341I-450505J216876D01*
G01*
X394198553Y-167852218D02*
G75*
G03*
X394901325Y-168500798I450513J-216880D01*
G01*
X395153584Y-168432499D02*
G75*
G03*
X394901325Y-168500798I2J-500009D01*
G01*
X394901325Y-165364201D02*
G75*
G03*
X395153583Y-165432500I252261J431710D01*
G01*
X396994746Y-168500797D02*
G75*
G03*
X396742488Y-168432499I-252260J-431713D01*
G01*
X396742489Y-165432499D02*
G75*
G03*
X396994747Y-165364200I-3J500009D01*
G01*
X397697520Y-166012779D02*
G75*
G03*
X396994747Y-165364200I-450514J216879D01*
G01*
X397697522Y-166012780D02*
G75*
G03*
X397648035Y-166229657I450504J-216880D01*
G01*
X396994747Y-168500796D02*
G75*
G03*
X397697520Y-167852219I252258J431700D01*
G01*
X397648018Y-167635342D02*
G75*
G03*
X397697520Y-167852219I500018J42D01*
G01*
X375029287Y-166229657D02*
X375029287Y-167635341D01*
X375934834Y-168432499D02*
X377523738Y-168432499D01*
X377523738Y-165432500D02*
X375934833Y-165432500D01*
X378429285Y-167635341D02*
X378429285Y-166229657D01*
X375029286Y-166229656D02*
G75*
G03*
X374979801Y-166012779I-499989J1D01*
G01*
X375682575Y-165364201D02*
G75*
G03*
X374979803Y-166012779I-252258J-431700D01*
G01*
X374979802Y-167852219D02*
G75*
G03*
X375029287Y-167635341I-450505J216876D01*
G01*
X374979803Y-167852218D02*
G75*
G03*
X375682575Y-168500798I450513J-216880D01*
G01*
X375934834Y-168432499D02*
G75*
G03*
X375682575Y-168500798I2J-500009D01*
G01*
X375682575Y-165364201D02*
G75*
G03*
X375934833Y-165432500I252261J431710D01*
G01*
X377775996Y-168500797D02*
G75*
G03*
X377523738Y-168432499I-252260J-431713D01*
G01*
X377523739Y-165432499D02*
G75*
G03*
X377775997Y-165364200I-3J500009D01*
G01*
X378478770Y-166012779D02*
G75*
G03*
X377775997Y-165364200I-450514J216879D01*
G01*
X378478772Y-166012780D02*
G75*
G03*
X378429285Y-166229657I450504J-216880D01*
G01*
X377775997Y-168500796D02*
G75*
G03*
X378478770Y-167852219I252258J431700D01*
G01*
X378429268Y-167635342D02*
G75*
G03*
X378478770Y-167852219I500018J42D01*
G01*
X355810537Y-166229657D02*
X355810537Y-167635341D01*
X356716084Y-168432499D02*
X358304988Y-168432499D01*
X358304988Y-165432500D02*
X356716083Y-165432500D01*
X359210535Y-167635341D02*
X359210535Y-166229657D01*
X355810536Y-166229656D02*
G75*
G03*
X355761051Y-166012779I-499989J1D01*
G01*
X356463825Y-165364201D02*
G75*
G03*
X355761053Y-166012779I-252258J-431700D01*
G01*
X355761052Y-167852219D02*
G75*
G03*
X355810537Y-167635341I-450505J216876D01*
G01*
X355761053Y-167852218D02*
G75*
G03*
X356463825Y-168500798I450513J-216880D01*
G01*
X356716084Y-168432499D02*
G75*
G03*
X356463825Y-168500798I2J-500009D01*
G01*
X356463825Y-165364201D02*
G75*
G03*
X356716083Y-165432500I252261J431710D01*
G01*
X358557246Y-168500797D02*
G75*
G03*
X358304988Y-168432499I-252260J-431713D01*
G01*
X358304989Y-165432499D02*
G75*
G03*
X358557247Y-165364200I-3J500009D01*
G01*
X359260020Y-166012779D02*
G75*
G03*
X358557247Y-165364200I-450514J216879D01*
G01*
X359260022Y-166012780D02*
G75*
G03*
X359210535Y-166229657I450504J-216880D01*
G01*
X358557247Y-168500796D02*
G75*
G03*
X359260020Y-167852219I252258J431700D01*
G01*
X359210518Y-167635342D02*
G75*
G03*
X359260020Y-167852219I500018J42D01*
G01*
X336591787Y-166229657D02*
X336591787Y-167635341D01*
X337497334Y-168432499D02*
X339086238Y-168432499D01*
X339086238Y-165432500D02*
X337497333Y-165432500D01*
X339991785Y-167635341D02*
X339991785Y-166229657D01*
X336591786Y-166229656D02*
G75*
G03*
X336542301Y-166012779I-499989J1D01*
G01*
X337245075Y-165364201D02*
G75*
G03*
X336542303Y-166012779I-252258J-431700D01*
G01*
X336542302Y-167852219D02*
G75*
G03*
X336591787Y-167635341I-450505J216876D01*
G01*
X336542303Y-167852218D02*
G75*
G03*
X337245075Y-168500798I450513J-216880D01*
G01*
X337497334Y-168432499D02*
G75*
G03*
X337245075Y-168500798I2J-500009D01*
G01*
X337245075Y-165364201D02*
G75*
G03*
X337497333Y-165432500I252261J431710D01*
G01*
X339338496Y-168500797D02*
G75*
G03*
X339086238Y-168432499I-252260J-431713D01*
G01*
X339086239Y-165432499D02*
G75*
G03*
X339338497Y-165364200I-3J500009D01*
G01*
X340041270Y-166012779D02*
G75*
G03*
X339338497Y-165364200I-450514J216879D01*
G01*
X340041272Y-166012780D02*
G75*
G03*
X339991785Y-166229657I450504J-216880D01*
G01*
X339338497Y-168500796D02*
G75*
G03*
X340041270Y-167852219I252258J431700D01*
G01*
X339991768Y-167635342D02*
G75*
G03*
X340041270Y-167852219I500018J42D01*
G01*
X317373037Y-166229657D02*
X317373037Y-167635341D01*
X318278584Y-168432499D02*
X319867488Y-168432499D01*
X319867488Y-165432500D02*
X318278583Y-165432500D01*
X320773035Y-167635341D02*
X320773035Y-166229657D01*
X317373036Y-166229656D02*
G75*
G03*
X317323551Y-166012779I-499989J1D01*
G01*
X318026325Y-165364201D02*
G75*
G03*
X317323553Y-166012779I-252258J-431700D01*
G01*
X317323552Y-167852219D02*
G75*
G03*
X317373037Y-167635341I-450505J216876D01*
G01*
X317323553Y-167852218D02*
G75*
G03*
X318026325Y-168500798I450513J-216880D01*
G01*
X318278584Y-168432499D02*
G75*
G03*
X318026325Y-168500798I2J-500009D01*
G01*
X318026325Y-165364201D02*
G75*
G03*
X318278583Y-165432500I252261J431710D01*
G01*
X320119746Y-168500797D02*
G75*
G03*
X319867488Y-168432499I-252260J-431713D01*
G01*
X319867489Y-165432499D02*
G75*
G03*
X320119747Y-165364200I-3J500009D01*
G01*
X320822520Y-166012779D02*
G75*
G03*
X320119747Y-165364200I-450514J216879D01*
G01*
X320822522Y-166012780D02*
G75*
G03*
X320773035Y-166229657I450504J-216880D01*
G01*
X320119747Y-168500796D02*
G75*
G03*
X320822520Y-167852219I252258J431700D01*
G01*
X320773018Y-167635342D02*
G75*
G03*
X320822520Y-167852219I500018J42D01*
G01*
X298154287Y-166229657D02*
X298154287Y-167635341D01*
X299059834Y-168432499D02*
X300648738Y-168432499D01*
X300648738Y-165432500D02*
X299059833Y-165432500D01*
X301554285Y-167635341D02*
X301554285Y-166229657D01*
X298154286Y-166229656D02*
G75*
G03*
X298104801Y-166012779I-499989J1D01*
G01*
X298807575Y-165364201D02*
G75*
G03*
X298104803Y-166012779I-252258J-431700D01*
G01*
X298104802Y-167852219D02*
G75*
G03*
X298154287Y-167635341I-450505J216876D01*
G01*
X298104803Y-167852218D02*
G75*
G03*
X298807575Y-168500798I450513J-216880D01*
G01*
X299059834Y-168432499D02*
G75*
G03*
X298807575Y-168500798I2J-500009D01*
G01*
X298807575Y-165364201D02*
G75*
G03*
X299059833Y-165432500I252261J431710D01*
G01*
X300900996Y-168500797D02*
G75*
G03*
X300648738Y-168432499I-252260J-431713D01*
G01*
X300648739Y-165432499D02*
G75*
G03*
X300900997Y-165364200I-3J500009D01*
G01*
X301603770Y-166012779D02*
G75*
G03*
X300900997Y-165364200I-450514J216879D01*
G01*
X301603772Y-166012780D02*
G75*
G03*
X301554285Y-166229657I450504J-216880D01*
G01*
X300900997Y-168500796D02*
G75*
G03*
X301603770Y-167852219I252258J431700D01*
G01*
X301554268Y-167635342D02*
G75*
G03*
X301603770Y-167852219I500018J42D01*
G01*
X278935537Y-166229657D02*
X278935537Y-167635341D01*
X279841084Y-168432499D02*
X281429988Y-168432499D01*
X281429988Y-165432500D02*
X279841083Y-165432500D01*
X282335535Y-167635341D02*
X282335535Y-166229657D01*
X278935536Y-166229656D02*
G75*
G03*
X278886051Y-166012779I-499989J1D01*
G01*
X279588825Y-165364201D02*
G75*
G03*
X278886053Y-166012779I-252258J-431700D01*
G01*
X278886052Y-167852219D02*
G75*
G03*
X278935537Y-167635341I-450505J216876D01*
G01*
X278886053Y-167852218D02*
G75*
G03*
X279588825Y-168500798I450513J-216880D01*
G01*
X279841084Y-168432499D02*
G75*
G03*
X279588825Y-168500798I2J-500009D01*
G01*
X279588825Y-165364201D02*
G75*
G03*
X279841083Y-165432500I252261J431710D01*
G01*
X281682246Y-168500797D02*
G75*
G03*
X281429988Y-168432499I-252260J-431713D01*
G01*
X281429989Y-165432499D02*
G75*
G03*
X281682247Y-165364200I-3J500009D01*
G01*
X282385020Y-166012779D02*
G75*
G03*
X281682247Y-165364200I-450514J216879D01*
G01*
X282385022Y-166012780D02*
G75*
G03*
X282335535Y-166229657I450504J-216880D01*
G01*
X281682247Y-168500796D02*
G75*
G03*
X282385020Y-167852219I252258J431700D01*
G01*
X282335518Y-167635342D02*
G75*
G03*
X282385020Y-167852219I500018J42D01*
G01*
X259716787Y-166229657D02*
X259716787Y-167635341D01*
X260622334Y-168432499D02*
X262211238Y-168432499D01*
X262211238Y-165432500D02*
X260622333Y-165432500D01*
X263116785Y-167635341D02*
X263116785Y-166229657D01*
X259716786Y-166229656D02*
G75*
G03*
X259667301Y-166012779I-499989J1D01*
G01*
X260370075Y-165364201D02*
G75*
G03*
X259667303Y-166012779I-252258J-431700D01*
G01*
X259667302Y-167852219D02*
G75*
G03*
X259716787Y-167635341I-450505J216876D01*
G01*
X259667303Y-167852218D02*
G75*
G03*
X260370075Y-168500798I450513J-216880D01*
G01*
X260622334Y-168432499D02*
G75*
G03*
X260370075Y-168500798I2J-500009D01*
G01*
X260370075Y-165364201D02*
G75*
G03*
X260622333Y-165432500I252261J431710D01*
G01*
X262463496Y-168500797D02*
G75*
G03*
X262211238Y-168432499I-252260J-431713D01*
G01*
X262211239Y-165432499D02*
G75*
G03*
X262463497Y-165364200I-3J500009D01*
G01*
X263166270Y-166012779D02*
G75*
G03*
X262463497Y-165364200I-450514J216879D01*
G01*
X263166272Y-166012780D02*
G75*
G03*
X263116785Y-166229657I450504J-216880D01*
G01*
X262463497Y-168500796D02*
G75*
G03*
X263166270Y-167852219I252258J431700D01*
G01*
X263116768Y-167635342D02*
G75*
G03*
X263166270Y-167852219I500018J42D01*
G01*
X240498037Y-166229657D02*
X240498037Y-167635341D01*
X241403584Y-168432499D02*
X242992488Y-168432499D01*
X242992488Y-165432500D02*
X241403583Y-165432500D01*
X243898035Y-167635341D02*
X243898035Y-166229657D01*
X240498036Y-166229656D02*
G75*
G03*
X240448551Y-166012779I-499989J1D01*
G01*
X241151325Y-165364201D02*
G75*
G03*
X240448553Y-166012779I-252258J-431700D01*
G01*
X240448552Y-167852219D02*
G75*
G03*
X240498037Y-167635341I-450505J216876D01*
G01*
X240448553Y-167852218D02*
G75*
G03*
X241151325Y-168500798I450513J-216880D01*
G01*
X241403584Y-168432499D02*
G75*
G03*
X241151325Y-168500798I2J-500009D01*
G01*
X241151325Y-165364201D02*
G75*
G03*
X241403583Y-165432500I252261J431710D01*
G01*
X243244746Y-168500797D02*
G75*
G03*
X242992488Y-168432499I-252260J-431713D01*
G01*
X242992489Y-165432499D02*
G75*
G03*
X243244747Y-165364200I-3J500009D01*
G01*
X243947520Y-166012779D02*
G75*
G03*
X243244747Y-165364200I-450514J216879D01*
G01*
X243947522Y-166012780D02*
G75*
G03*
X243898035Y-166229657I450504J-216880D01*
G01*
X243244747Y-168500796D02*
G75*
G03*
X243947520Y-167852219I252258J431700D01*
G01*
X243898018Y-167635342D02*
G75*
G03*
X243947520Y-167852219I500018J42D01*
G01*
X221279287Y-166229657D02*
X221279287Y-167635341D01*
X222184834Y-168432499D02*
X223773738Y-168432499D01*
X223773738Y-165432500D02*
X222184833Y-165432500D01*
X224679285Y-167635341D02*
X224679285Y-166229657D01*
X221279286Y-166229656D02*
G75*
G03*
X221229801Y-166012779I-499989J1D01*
G01*
X221932575Y-165364201D02*
G75*
G03*
X221229803Y-166012779I-252258J-431700D01*
G01*
X221229802Y-167852219D02*
G75*
G03*
X221279287Y-167635341I-450505J216876D01*
G01*
X221229803Y-167852218D02*
G75*
G03*
X221932575Y-168500798I450513J-216880D01*
G01*
X222184834Y-168432499D02*
G75*
G03*
X221932575Y-168500798I2J-500009D01*
G01*
X221932575Y-165364201D02*
G75*
G03*
X222184833Y-165432500I252261J431710D01*
G01*
X224025996Y-168500797D02*
G75*
G03*
X223773738Y-168432499I-252260J-431713D01*
G01*
X223773739Y-165432499D02*
G75*
G03*
X224025997Y-165364200I-3J500009D01*
G01*
X224728770Y-166012779D02*
G75*
G03*
X224025997Y-165364200I-450514J216879D01*
G01*
X224728772Y-166012780D02*
G75*
G03*
X224679285Y-166229657I450504J-216880D01*
G01*
X224025997Y-168500796D02*
G75*
G03*
X224728770Y-167852219I252258J431700D01*
G01*
X224679268Y-167635342D02*
G75*
G03*
X224728770Y-167852219I500018J42D01*
G01*
X202060537Y-166229657D02*
X202060537Y-167635341D01*
X202966084Y-168432499D02*
X204554988Y-168432499D01*
X204554988Y-165432500D02*
X202966083Y-165432500D01*
X205460535Y-167635341D02*
X205460535Y-166229657D01*
X202060536Y-166229656D02*
G75*
G03*
X202011051Y-166012779I-499989J1D01*
G01*
X202713825Y-165364201D02*
G75*
G03*
X202011053Y-166012779I-252258J-431700D01*
G01*
X202011052Y-167852219D02*
G75*
G03*
X202060537Y-167635341I-450505J216876D01*
G01*
X202011053Y-167852218D02*
G75*
G03*
X202713825Y-168500798I450513J-216880D01*
G01*
X202966084Y-168432499D02*
G75*
G03*
X202713825Y-168500798I2J-500009D01*
G01*
X202713825Y-165364201D02*
G75*
G03*
X202966083Y-165432500I252261J431710D01*
G01*
X204807246Y-168500797D02*
G75*
G03*
X204554988Y-168432499I-252260J-431713D01*
G01*
X204554989Y-165432499D02*
G75*
G03*
X204807247Y-165364200I-3J500009D01*
G01*
X205510020Y-166012779D02*
G75*
G03*
X204807247Y-165364200I-450514J216879D01*
G01*
X205510022Y-166012780D02*
G75*
G03*
X205460535Y-166229657I450504J-216880D01*
G01*
X204807247Y-168500796D02*
G75*
G03*
X205510020Y-167852219I252258J431700D01*
G01*
X205460518Y-167635342D02*
G75*
G03*
X205510020Y-167852219I500018J42D01*
G01*
X182841787Y-166229657D02*
X182841787Y-167635341D01*
X183747334Y-168432499D02*
X185336238Y-168432499D01*
X185336238Y-165432500D02*
X183747333Y-165432500D01*
X186241785Y-167635341D02*
X186241785Y-166229657D01*
X182841786Y-166229656D02*
G75*
G03*
X182792301Y-166012779I-499989J1D01*
G01*
X183495075Y-165364201D02*
G75*
G03*
X182792303Y-166012779I-252258J-431700D01*
G01*
X182792302Y-167852219D02*
G75*
G03*
X182841787Y-167635341I-450505J216876D01*
G01*
X182792303Y-167852218D02*
G75*
G03*
X183495075Y-168500798I450513J-216880D01*
G01*
X183747334Y-168432499D02*
G75*
G03*
X183495075Y-168500798I2J-500009D01*
G01*
X183495075Y-165364201D02*
G75*
G03*
X183747333Y-165432500I252261J431710D01*
G01*
X185588496Y-168500797D02*
G75*
G03*
X185336238Y-168432499I-252260J-431713D01*
G01*
X185336239Y-165432499D02*
G75*
G03*
X185588497Y-165364200I-3J500009D01*
G01*
X186291270Y-166012779D02*
G75*
G03*
X185588497Y-165364200I-450514J216879D01*
G01*
X186291272Y-166012780D02*
G75*
G03*
X186241785Y-166229657I450504J-216880D01*
G01*
X185588497Y-168500796D02*
G75*
G03*
X186291270Y-167852219I252258J431700D01*
G01*
X186241768Y-167635342D02*
G75*
G03*
X186291270Y-167852219I500018J42D01*
G01*
X163623037Y-166229657D02*
X163623037Y-167635341D01*
X164528584Y-168432499D02*
X166117488Y-168432499D01*
X166117488Y-165432500D02*
X164528583Y-165432500D01*
X167023035Y-167635341D02*
X167023035Y-166229657D01*
X163623036Y-166229656D02*
G75*
G03*
X163573551Y-166012779I-499989J1D01*
G01*
X164276325Y-165364201D02*
G75*
G03*
X163573553Y-166012779I-252258J-431700D01*
G01*
X163573552Y-167852219D02*
G75*
G03*
X163623037Y-167635341I-450505J216876D01*
G01*
X163573553Y-167852218D02*
G75*
G03*
X164276325Y-168500798I450513J-216880D01*
G01*
X164528584Y-168432499D02*
G75*
G03*
X164276325Y-168500798I2J-500009D01*
G01*
X164276325Y-165364201D02*
G75*
G03*
X164528583Y-165432500I252261J431710D01*
G01*
X166369746Y-168500797D02*
G75*
G03*
X166117488Y-168432499I-252260J-431713D01*
G01*
X166117489Y-165432499D02*
G75*
G03*
X166369747Y-165364200I-3J500009D01*
G01*
X167072520Y-166012779D02*
G75*
G03*
X166369747Y-165364200I-450514J216879D01*
G01*
X167072522Y-166012780D02*
G75*
G03*
X167023035Y-166229657I450504J-216880D01*
G01*
X166369747Y-168500796D02*
G75*
G03*
X167072520Y-167852219I252258J431700D01*
G01*
X167023018Y-167635342D02*
G75*
G03*
X167072520Y-167852219I500018J42D01*
G01*
X420766787Y-223877157D02*
X420766787Y-225282841D01*
X421672334Y-226079999D02*
X423261238Y-226079999D01*
X423261238Y-223080000D02*
X421672333Y-223080000D01*
X424166785Y-225282841D02*
X424166785Y-223877157D01*
X420766786Y-223877156D02*
G75*
G03*
X420717301Y-223660279I-499989J1D01*
G01*
X421420075Y-223011701D02*
G75*
G03*
X420717303Y-223660279I-252258J-431700D01*
G01*
X420717302Y-225499719D02*
G75*
G03*
X420766787Y-225282841I-450505J216876D01*
G01*
X420717303Y-225499718D02*
G75*
G03*
X421420075Y-226148298I450513J-216880D01*
G01*
X421672334Y-226079999D02*
G75*
G03*
X421420075Y-226148298I2J-500009D01*
G01*
X421420075Y-223011701D02*
G75*
G03*
X421672333Y-223080000I252261J431710D01*
G01*
X423513496Y-226148297D02*
G75*
G03*
X423261238Y-226079999I-252260J-431713D01*
G01*
X423261239Y-223079999D02*
G75*
G03*
X423513497Y-223011700I-3J500009D01*
G01*
X424216270Y-223660279D02*
G75*
G03*
X423513497Y-223011700I-450514J216879D01*
G01*
X424216272Y-223660280D02*
G75*
G03*
X424166785Y-223877157I450504J-216880D01*
G01*
X423513497Y-226148296D02*
G75*
G03*
X424216270Y-225499719I252258J431700D01*
G01*
X424166768Y-225282842D02*
G75*
G03*
X424216270Y-225499719I500018J42D01*
G01*
X451873037Y-243082157D02*
X451873037Y-244487841D01*
X452778584Y-245284999D02*
X454367488Y-245284999D01*
X454367488Y-242285000D02*
X452778583Y-242285000D01*
X455273035Y-244487841D02*
X455273035Y-243082157D01*
X451873036Y-243082156D02*
G75*
G03*
X451823551Y-242865279I-499989J1D01*
G01*
X452526325Y-242216701D02*
G75*
G03*
X451823553Y-242865279I-252258J-431700D01*
G01*
X451823552Y-244704719D02*
G75*
G03*
X451873037Y-244487841I-450505J216876D01*
G01*
X451823553Y-244704718D02*
G75*
G03*
X452526325Y-245353298I450513J-216880D01*
G01*
X452778584Y-245284999D02*
G75*
G03*
X452526325Y-245353298I2J-500009D01*
G01*
X452526325Y-242216701D02*
G75*
G03*
X452778583Y-242285000I252261J431710D01*
G01*
X454619746Y-245353297D02*
G75*
G03*
X454367488Y-245284999I-252260J-431713D01*
G01*
X454367489Y-242284999D02*
G75*
G03*
X454619747Y-242216700I-3J500009D01*
G01*
X455322520Y-242865279D02*
G75*
G03*
X454619747Y-242216700I-450514J216879D01*
G01*
X455322522Y-242865280D02*
G75*
G03*
X455273035Y-243082157I450504J-216880D01*
G01*
X454619747Y-245353296D02*
G75*
G03*
X455322520Y-244704719I252258J431700D01*
G01*
X455273018Y-244487842D02*
G75*
G03*
X455322520Y-244704719I500018J42D01*
G01*
X230848929Y-204667157D02*
X230848929Y-206072841D01*
X231754476Y-206869999D02*
X233343380Y-206869999D01*
X233343380Y-203870000D02*
X231754475Y-203870000D01*
X234248927Y-206072841D02*
X234248927Y-204667157D01*
X230848928Y-204667156D02*
G75*
G03*
X230799443Y-204450279I-499989J1D01*
G01*
X231502217Y-203801701D02*
G75*
G03*
X230799445Y-204450279I-252258J-431700D01*
G01*
X230799444Y-206289719D02*
G75*
G03*
X230848929Y-206072841I-450505J216876D01*
G01*
X230799445Y-206289718D02*
G75*
G03*
X231502217Y-206938298I450513J-216880D01*
G01*
X231754476Y-206869999D02*
G75*
G03*
X231502217Y-206938298I2J-500009D01*
G01*
X231502217Y-203801701D02*
G75*
G03*
X231754475Y-203870000I252261J431710D01*
G01*
X233595638Y-206938297D02*
G75*
G03*
X233343380Y-206869999I-252260J-431713D01*
G01*
X233343381Y-203869999D02*
G75*
G03*
X233595639Y-203801700I-3J500009D01*
G01*
X234298412Y-204450279D02*
G75*
G03*
X233595639Y-203801700I-450514J216879D01*
G01*
X234298414Y-204450280D02*
G75*
G03*
X234248927Y-204667157I450504J-216880D01*
G01*
X233595639Y-206938296D02*
G75*
G03*
X234298412Y-206289719I252258J431700D01*
G01*
X234248910Y-206072842D02*
G75*
G03*
X234298412Y-206289719I500018J42D01*
G01*
X432562339Y-262272157D02*
X432562339Y-263677841D01*
X433467886Y-264474999D02*
X435056790Y-264474999D01*
X435056790Y-261475000D02*
X433467885Y-261475000D01*
X435962337Y-263677841D02*
X435962337Y-262272157D01*
X432562338Y-262272156D02*
G75*
G03*
X432512853Y-262055279I-499989J1D01*
G01*
X433215627Y-261406701D02*
G75*
G03*
X432512855Y-262055279I-252258J-431700D01*
G01*
X432512854Y-263894719D02*
G75*
G03*
X432562339Y-263677841I-450505J216876D01*
G01*
X432512855Y-263894718D02*
G75*
G03*
X433215627Y-264543298I450513J-216880D01*
G01*
X433467886Y-264474999D02*
G75*
G03*
X433215627Y-264543298I2J-500009D01*
G01*
X433215627Y-261406701D02*
G75*
G03*
X433467885Y-261475000I252261J431710D01*
G01*
X435309048Y-264543297D02*
G75*
G03*
X435056790Y-264474999I-252260J-431713D01*
G01*
X435056791Y-261474999D02*
G75*
G03*
X435309049Y-261406700I-3J500009D01*
G01*
X436011822Y-262055279D02*
G75*
G03*
X435309049Y-261406700I-450514J216879D01*
G01*
X436011824Y-262055280D02*
G75*
G03*
X435962337Y-262272157I450504J-216880D01*
G01*
X435309049Y-264543296D02*
G75*
G03*
X436011822Y-263894719I252258J431700D01*
G01*
X435962320Y-263677842D02*
G75*
G03*
X436011822Y-263894719I500018J42D01*
G01*
X451904287Y-166229657D02*
X451904287Y-167635341D01*
X452809834Y-168432499D02*
X454398738Y-168432499D01*
X454398738Y-165432500D02*
X452809833Y-165432500D01*
X455304285Y-167635341D02*
X455304285Y-166229657D01*
X451904286Y-166229656D02*
G75*
G03*
X451854801Y-166012779I-499989J1D01*
G01*
X452557575Y-165364201D02*
G75*
G03*
X451854803Y-166012779I-252258J-431700D01*
G01*
X451854802Y-167852219D02*
G75*
G03*
X451904287Y-167635341I-450505J216876D01*
G01*
X451854803Y-167852218D02*
G75*
G03*
X452557575Y-168500798I450513J-216880D01*
G01*
X452809834Y-168432499D02*
G75*
G03*
X452557575Y-168500798I2J-500009D01*
G01*
X452557575Y-165364201D02*
G75*
G03*
X452809833Y-165432500I252261J431710D01*
G01*
X454650996Y-168500797D02*
G75*
G03*
X454398738Y-168432499I-252260J-431713D01*
G01*
X454398739Y-165432499D02*
G75*
G03*
X454650997Y-165364200I-3J500009D01*
G01*
X455353770Y-166012779D02*
G75*
G03*
X454650997Y-165364200I-450514J216879D01*
G01*
X455353772Y-166012780D02*
G75*
G03*
X455304285Y-166229657I450504J-216880D01*
G01*
X454650997Y-168500796D02*
G75*
G03*
X455353770Y-167852219I252258J431700D01*
G01*
X455304268Y-167635342D02*
G75*
G03*
X455353770Y-167852219I500018J42D01*
G01*
X235683491Y-223872157D02*
X235683491Y-225277841D01*
X236589038Y-226074999D02*
X238177942Y-226074999D01*
X238177942Y-223075000D02*
X236589037Y-223075000D01*
X239083489Y-225277841D02*
X239083489Y-223872157D01*
X235683490Y-223872156D02*
G75*
G03*
X235634005Y-223655279I-499989J1D01*
G01*
X236336779Y-223006701D02*
G75*
G03*
X235634007Y-223655279I-252258J-431700D01*
G01*
X235634006Y-225494719D02*
G75*
G03*
X235683491Y-225277841I-450505J216876D01*
G01*
X235634007Y-225494718D02*
G75*
G03*
X236336779Y-226143298I450513J-216880D01*
G01*
X236589038Y-226074999D02*
G75*
G03*
X236336779Y-226143298I2J-500009D01*
G01*
X236336779Y-223006701D02*
G75*
G03*
X236589037Y-223075000I252261J431710D01*
G01*
X238430200Y-226143297D02*
G75*
G03*
X238177942Y-226074999I-252260J-431713D01*
G01*
X238177943Y-223074999D02*
G75*
G03*
X238430201Y-223006700I-3J500009D01*
G01*
X239132974Y-223655279D02*
G75*
G03*
X238430201Y-223006700I-450514J216879D01*
G01*
X239132976Y-223655280D02*
G75*
G03*
X239083489Y-223872157I450504J-216880D01*
G01*
X238430201Y-226143296D02*
G75*
G03*
X239132974Y-225494719I252258J431700D01*
G01*
X239083472Y-225277842D02*
G75*
G03*
X239132974Y-225494719I500018J42D01*
G01*
X370437467Y-223872157D02*
X370437467Y-225277841D01*
X371343014Y-226074999D02*
X372931918Y-226074999D01*
X372931918Y-223075000D02*
X371343013Y-223075000D01*
X373837465Y-225277841D02*
X373837465Y-223872157D01*
X370437466Y-223872156D02*
G75*
G03*
X370387981Y-223655279I-499989J1D01*
G01*
X371090755Y-223006701D02*
G75*
G03*
X370387983Y-223655279I-252258J-431700D01*
G01*
X370387982Y-225494719D02*
G75*
G03*
X370437467Y-225277841I-450505J216876D01*
G01*
X370387983Y-225494718D02*
G75*
G03*
X371090755Y-226143298I450513J-216880D01*
G01*
X371343014Y-226074999D02*
G75*
G03*
X371090755Y-226143298I2J-500009D01*
G01*
X371090755Y-223006701D02*
G75*
G03*
X371343013Y-223075000I252261J431710D01*
G01*
X373184176Y-226143297D02*
G75*
G03*
X372931918Y-226074999I-252260J-431713D01*
G01*
X372931919Y-223074999D02*
G75*
G03*
X373184177Y-223006700I-3J500009D01*
G01*
X373886950Y-223655279D02*
G75*
G03*
X373184177Y-223006700I-450514J216879D01*
G01*
X373886952Y-223655280D02*
G75*
G03*
X373837465Y-223872157I450504J-216880D01*
G01*
X373184177Y-226143296D02*
G75*
G03*
X373886950Y-225494719I252258J431700D01*
G01*
X373837448Y-225277842D02*
G75*
G03*
X373886950Y-225494719I500018J42D01*
G01*
X170788037Y-223872157D02*
X170788037Y-225277841D01*
X171693584Y-226074999D02*
X173282488Y-226074999D01*
X173282488Y-223075000D02*
X171693583Y-223075000D01*
X174188035Y-225277841D02*
X174188035Y-223872157D01*
X170788036Y-223872156D02*
G75*
G03*
X170738551Y-223655279I-499989J1D01*
G01*
X171441325Y-223006701D02*
G75*
G03*
X170738553Y-223655279I-252258J-431700D01*
G01*
X170738552Y-225494719D02*
G75*
G03*
X170788037Y-225277841I-450505J216876D01*
G01*
X170738553Y-225494718D02*
G75*
G03*
X171441325Y-226143298I450513J-216880D01*
G01*
X171693584Y-226074999D02*
G75*
G03*
X171441325Y-226143298I2J-500009D01*
G01*
X171441325Y-223006701D02*
G75*
G03*
X171693583Y-223075000I252261J431710D01*
G01*
X173534746Y-226143297D02*
G75*
G03*
X173282488Y-226074999I-252260J-431713D01*
G01*
X173282489Y-223074999D02*
G75*
G03*
X173534747Y-223006700I-3J500009D01*
G01*
X174237520Y-223655279D02*
G75*
G03*
X173534747Y-223006700I-450514J216879D01*
G01*
X174237522Y-223655280D02*
G75*
G03*
X174188035Y-223872157I450504J-216880D01*
G01*
X173534747Y-226143296D02*
G75*
G03*
X174237520Y-225494719I252258J431700D01*
G01*
X174188018Y-225277842D02*
G75*
G03*
X174237520Y-225494719I500018J42D01*
G01*
X245144287Y-243082157D02*
X245144287Y-244487841D01*
X246049834Y-245284999D02*
X247638738Y-245284999D01*
X247638738Y-242285000D02*
X246049833Y-242285000D01*
X248544285Y-244487841D02*
X248544285Y-243082157D01*
X245144286Y-243082156D02*
G75*
G03*
X245094801Y-242865279I-499989J1D01*
G01*
X245797575Y-242216701D02*
G75*
G03*
X245094803Y-242865279I-252258J-431700D01*
G01*
X245094802Y-244704719D02*
G75*
G03*
X245144287Y-244487841I-450505J216876D01*
G01*
X245094803Y-244704718D02*
G75*
G03*
X245797575Y-245353298I450513J-216880D01*
G01*
X246049834Y-245284999D02*
G75*
G03*
X245797575Y-245353298I2J-500009D01*
G01*
X245797575Y-242216701D02*
G75*
G03*
X246049833Y-242285000I252261J431710D01*
G01*
X247890996Y-245353297D02*
G75*
G03*
X247638738Y-245284999I-252260J-431713D01*
G01*
X247638739Y-242284999D02*
G75*
G03*
X247890997Y-242216700I-3J500009D01*
G01*
X248593770Y-242865279D02*
G75*
G03*
X247890997Y-242216700I-450514J216879D01*
G01*
X248593772Y-242865280D02*
G75*
G03*
X248544285Y-243082157I450504J-216880D01*
G01*
X247890997Y-245353296D02*
G75*
G03*
X248593770Y-244704719I252258J431700D01*
G01*
X248544268Y-244487842D02*
G75*
G03*
X248593770Y-244704719I500018J42D01*
G01*
X423073037Y-185442157D02*
X423073037Y-186847841D01*
X423978584Y-187644999D02*
X425567488Y-187644999D01*
X425567488Y-184645000D02*
X423978583Y-184645000D01*
X426473035Y-186847841D02*
X426473035Y-185442157D01*
X423073036Y-185442156D02*
G75*
G03*
X423023551Y-185225279I-499989J1D01*
G01*
X423726325Y-184576701D02*
G75*
G03*
X423023553Y-185225279I-252258J-431700D01*
G01*
X423023552Y-187064719D02*
G75*
G03*
X423073037Y-186847841I-450505J216876D01*
G01*
X423023553Y-187064718D02*
G75*
G03*
X423726325Y-187713298I450513J-216880D01*
G01*
X423978584Y-187644999D02*
G75*
G03*
X423726325Y-187713298I2J-500009D01*
G01*
X423726325Y-184576701D02*
G75*
G03*
X423978583Y-184645000I252261J431710D01*
G01*
X425819746Y-187713297D02*
G75*
G03*
X425567488Y-187644999I-252260J-431713D01*
G01*
X425567489Y-184644999D02*
G75*
G03*
X425819747Y-184576700I-3J500009D01*
G01*
X426522520Y-185225279D02*
G75*
G03*
X425819747Y-184576700I-450514J216879D01*
G01*
X426522522Y-185225280D02*
G75*
G03*
X426473035Y-185442157I450504J-216880D01*
G01*
X425819747Y-187713296D02*
G75*
G03*
X426522520Y-187064719I252258J431700D01*
G01*
X426473018Y-186847842D02*
G75*
G03*
X426522520Y-187064719I500018J42D01*
G01*
X283640537Y-243082157D02*
X283640537Y-244487841D01*
X284546084Y-245284999D02*
X286134988Y-245284999D01*
X286134988Y-242285000D02*
X284546083Y-242285000D01*
X287040535Y-244487841D02*
X287040535Y-243082157D01*
X283640536Y-243082156D02*
G75*
G03*
X283591051Y-242865279I-499989J1D01*
G01*
X284293825Y-242216701D02*
G75*
G03*
X283591053Y-242865279I-252258J-431700D01*
G01*
X283591052Y-244704719D02*
G75*
G03*
X283640537Y-244487841I-450505J216876D01*
G01*
X283591053Y-244704718D02*
G75*
G03*
X284293825Y-245353298I450513J-216880D01*
G01*
X284546084Y-245284999D02*
G75*
G03*
X284293825Y-245353298I2J-500009D01*
G01*
X284293825Y-242216701D02*
G75*
G03*
X284546083Y-242285000I252261J431710D01*
G01*
X286387246Y-245353297D02*
G75*
G03*
X286134988Y-245284999I-252260J-431713D01*
G01*
X286134989Y-242284999D02*
G75*
G03*
X286387247Y-242216700I-3J500009D01*
G01*
X287090020Y-242865279D02*
G75*
G03*
X286387247Y-242216700I-450514J216879D01*
G01*
X287090022Y-242865280D02*
G75*
G03*
X287040535Y-243082157I450504J-216880D01*
G01*
X286387247Y-245353296D02*
G75*
G03*
X287090020Y-244704719I252258J431700D01*
G01*
X287040518Y-244487842D02*
G75*
G03*
X287090020Y-244704719I500018J42D01*
G01*
X197182355Y-223872157D02*
X197182355Y-225277841D01*
X198087902Y-226074999D02*
X199676806Y-226074999D01*
X199676806Y-223075000D02*
X198087901Y-223075000D01*
X200582353Y-225277841D02*
X200582353Y-223872157D01*
X197182354Y-223872156D02*
G75*
G03*
X197132869Y-223655279I-499989J1D01*
G01*
X197835643Y-223006701D02*
G75*
G03*
X197132871Y-223655279I-252258J-431700D01*
G01*
X197132870Y-225494719D02*
G75*
G03*
X197182355Y-225277841I-450505J216876D01*
G01*
X197132871Y-225494718D02*
G75*
G03*
X197835643Y-226143298I450513J-216880D01*
G01*
X198087902Y-226074999D02*
G75*
G03*
X197835643Y-226143298I2J-500009D01*
G01*
X197835643Y-223006701D02*
G75*
G03*
X198087901Y-223075000I252261J431710D01*
G01*
X199929064Y-226143297D02*
G75*
G03*
X199676806Y-226074999I-252260J-431713D01*
G01*
X199676807Y-223074999D02*
G75*
G03*
X199929065Y-223006700I-3J500009D01*
G01*
X200631838Y-223655279D02*
G75*
G03*
X199929065Y-223006700I-450514J216879D01*
G01*
X200631840Y-223655280D02*
G75*
G03*
X200582353Y-223872157I450504J-216880D01*
G01*
X199929065Y-226143296D02*
G75*
G03*
X200631838Y-225494719I252258J431700D01*
G01*
X200582336Y-225277842D02*
G75*
G03*
X200631838Y-225494719I500018J42D01*
G01*
X336573031Y-185448407D02*
X336573031Y-186854091D01*
X337478578Y-187651249D02*
X339067482Y-187651249D01*
X339067482Y-184651250D02*
X337478577Y-184651250D01*
X339973029Y-186854091D02*
X339973029Y-185448407D01*
X336573030Y-185448406D02*
G75*
G03*
X336523545Y-185231529I-499989J1D01*
G01*
X337226319Y-184582951D02*
G75*
G03*
X336523547Y-185231529I-252258J-431700D01*
G01*
X336523546Y-187070969D02*
G75*
G03*
X336573031Y-186854091I-450505J216876D01*
G01*
X336523547Y-187070968D02*
G75*
G03*
X337226319Y-187719548I450513J-216880D01*
G01*
X337478578Y-187651249D02*
G75*
G03*
X337226319Y-187719548I2J-500009D01*
G01*
X337226319Y-184582951D02*
G75*
G03*
X337478577Y-184651250I252261J431710D01*
G01*
X339319740Y-187719547D02*
G75*
G03*
X339067482Y-187651249I-252260J-431713D01*
G01*
X339067483Y-184651249D02*
G75*
G03*
X339319741Y-184582950I-3J500009D01*
G01*
X340022514Y-185231529D02*
G75*
G03*
X339319741Y-184582950I-450514J216879D01*
G01*
X340022516Y-185231530D02*
G75*
G03*
X339973029Y-185448407I450504J-216880D01*
G01*
X339319741Y-187719546D02*
G75*
G03*
X340022514Y-187070969I252258J431700D01*
G01*
X339973012Y-186854092D02*
G75*
G03*
X340022514Y-187070969I500018J42D01*
G01*
X317356365Y-185448407D02*
X317356365Y-186854091D01*
X318261912Y-187651249D02*
X319850816Y-187651249D01*
X319850816Y-184651250D02*
X318261911Y-184651250D01*
X320756363Y-186854091D02*
X320756363Y-185448407D01*
X317356364Y-185448406D02*
G75*
G03*
X317306879Y-185231529I-499989J1D01*
G01*
X318009653Y-184582951D02*
G75*
G03*
X317306881Y-185231529I-252258J-431700D01*
G01*
X317306880Y-187070969D02*
G75*
G03*
X317356365Y-186854091I-450505J216876D01*
G01*
X317306881Y-187070968D02*
G75*
G03*
X318009653Y-187719548I450513J-216880D01*
G01*
X318261912Y-187651249D02*
G75*
G03*
X318009653Y-187719548I2J-500009D01*
G01*
X318009653Y-184582951D02*
G75*
G03*
X318261911Y-184651250I252261J431710D01*
G01*
X320103074Y-187719547D02*
G75*
G03*
X319850816Y-187651249I-252260J-431713D01*
G01*
X319850817Y-184651249D02*
G75*
G03*
X320103075Y-184582950I-3J500009D01*
G01*
X320805848Y-185231529D02*
G75*
G03*
X320103075Y-184582950I-450514J216879D01*
G01*
X320805850Y-185231530D02*
G75*
G03*
X320756363Y-185448407I450504J-216880D01*
G01*
X320103075Y-187719546D02*
G75*
G03*
X320805848Y-187070969I252258J431700D01*
G01*
X320756346Y-186854092D02*
G75*
G03*
X320805848Y-187070969I500018J42D01*
G01*
X298139699Y-185448407D02*
X298139699Y-186854091D01*
X299045246Y-187651249D02*
X300634150Y-187651249D01*
X300634150Y-184651250D02*
X299045245Y-184651250D01*
X301539697Y-186854091D02*
X301539697Y-185448407D01*
X298139698Y-185448406D02*
G75*
G03*
X298090213Y-185231529I-499989J1D01*
G01*
X298792987Y-184582951D02*
G75*
G03*
X298090215Y-185231529I-252258J-431700D01*
G01*
X298090214Y-187070969D02*
G75*
G03*
X298139699Y-186854091I-450505J216876D01*
G01*
X298090215Y-187070968D02*
G75*
G03*
X298792987Y-187719548I450513J-216880D01*
G01*
X299045246Y-187651249D02*
G75*
G03*
X298792987Y-187719548I2J-500009D01*
G01*
X298792987Y-184582951D02*
G75*
G03*
X299045245Y-184651250I252261J431710D01*
G01*
X300886408Y-187719547D02*
G75*
G03*
X300634150Y-187651249I-252260J-431713D01*
G01*
X300634151Y-184651249D02*
G75*
G03*
X300886409Y-184582950I-3J500009D01*
G01*
X301589182Y-185231529D02*
G75*
G03*
X300886409Y-184582950I-450514J216879D01*
G01*
X301589184Y-185231530D02*
G75*
G03*
X301539697Y-185448407I450504J-216880D01*
G01*
X300886409Y-187719546D02*
G75*
G03*
X301589182Y-187070969I252258J431700D01*
G01*
X301539680Y-186854092D02*
G75*
G03*
X301589182Y-187070969I500018J42D01*
G01*
X278923033Y-185448407D02*
X278923033Y-186854091D01*
X279828580Y-187651249D02*
X281417484Y-187651249D01*
X281417484Y-184651250D02*
X279828579Y-184651250D01*
X282323031Y-186854091D02*
X282323031Y-185448407D01*
X278923032Y-185448406D02*
G75*
G03*
X278873547Y-185231529I-499989J1D01*
G01*
X279576321Y-184582951D02*
G75*
G03*
X278873549Y-185231529I-252258J-431700D01*
G01*
X278873548Y-187070969D02*
G75*
G03*
X278923033Y-186854091I-450505J216876D01*
G01*
X278873549Y-187070968D02*
G75*
G03*
X279576321Y-187719548I450513J-216880D01*
G01*
X279828580Y-187651249D02*
G75*
G03*
X279576321Y-187719548I2J-500009D01*
G01*
X279576321Y-184582951D02*
G75*
G03*
X279828579Y-184651250I252261J431710D01*
G01*
X281669742Y-187719547D02*
G75*
G03*
X281417484Y-187651249I-252260J-431713D01*
G01*
X281417485Y-184651249D02*
G75*
G03*
X281669743Y-184582950I-3J500009D01*
G01*
X282372516Y-185231529D02*
G75*
G03*
X281669743Y-184582950I-450514J216879D01*
G01*
X282372518Y-185231530D02*
G75*
G03*
X282323031Y-185448407I450504J-216880D01*
G01*
X281669743Y-187719546D02*
G75*
G03*
X282372516Y-187070969I252258J431700D01*
G01*
X282323014Y-186854092D02*
G75*
G03*
X282372516Y-187070969I500018J42D01*
G01*
X259706367Y-185448407D02*
X259706367Y-186854091D01*
X260611914Y-187651249D02*
X262200818Y-187651249D01*
X262200818Y-184651250D02*
X260611913Y-184651250D01*
X263106365Y-186854091D02*
X263106365Y-185448407D01*
X259706366Y-185448406D02*
G75*
G03*
X259656881Y-185231529I-499989J1D01*
G01*
X260359655Y-184582951D02*
G75*
G03*
X259656883Y-185231529I-252258J-431700D01*
G01*
X259656882Y-187070969D02*
G75*
G03*
X259706367Y-186854091I-450505J216876D01*
G01*
X259656883Y-187070968D02*
G75*
G03*
X260359655Y-187719548I450513J-216880D01*
G01*
X260611914Y-187651249D02*
G75*
G03*
X260359655Y-187719548I2J-500009D01*
G01*
X260359655Y-184582951D02*
G75*
G03*
X260611913Y-184651250I252261J431710D01*
G01*
X262453076Y-187719547D02*
G75*
G03*
X262200818Y-187651249I-252260J-431713D01*
G01*
X262200819Y-184651249D02*
G75*
G03*
X262453077Y-184582950I-3J500009D01*
G01*
X263155850Y-185231529D02*
G75*
G03*
X262453077Y-184582950I-450514J216879D01*
G01*
X263155852Y-185231530D02*
G75*
G03*
X263106365Y-185448407I450504J-216880D01*
G01*
X262453077Y-187719546D02*
G75*
G03*
X263155850Y-187070969I252258J431700D01*
G01*
X263106348Y-186854092D02*
G75*
G03*
X263155850Y-187070969I500018J42D01*
G01*
X240489701Y-185448407D02*
X240489701Y-186854091D01*
X241395248Y-187651249D02*
X242984152Y-187651249D01*
X242984152Y-184651250D02*
X241395247Y-184651250D01*
X243889699Y-186854091D02*
X243889699Y-185448407D01*
X240489700Y-185448406D02*
G75*
G03*
X240440215Y-185231529I-499989J1D01*
G01*
X241142989Y-184582951D02*
G75*
G03*
X240440217Y-185231529I-252258J-431700D01*
G01*
X240440216Y-187070969D02*
G75*
G03*
X240489701Y-186854091I-450505J216876D01*
G01*
X240440217Y-187070968D02*
G75*
G03*
X241142989Y-187719548I450513J-216880D01*
G01*
X241395248Y-187651249D02*
G75*
G03*
X241142989Y-187719548I2J-500009D01*
G01*
X241142989Y-184582951D02*
G75*
G03*
X241395247Y-184651250I252261J431710D01*
G01*
X243236410Y-187719547D02*
G75*
G03*
X242984152Y-187651249I-252260J-431713D01*
G01*
X242984153Y-184651249D02*
G75*
G03*
X243236411Y-184582950I-3J500009D01*
G01*
X243939184Y-185231529D02*
G75*
G03*
X243236411Y-184582950I-450514J216879D01*
G01*
X243939186Y-185231530D02*
G75*
G03*
X243889699Y-185448407I450504J-216880D01*
G01*
X243236411Y-187719546D02*
G75*
G03*
X243939184Y-187070969I252258J431700D01*
G01*
X243889682Y-186854092D02*
G75*
G03*
X243939184Y-187070969I500018J42D01*
G01*
X221273035Y-185448407D02*
X221273035Y-186854091D01*
X222178582Y-187651249D02*
X223767486Y-187651249D01*
X223767486Y-184651250D02*
X222178581Y-184651250D01*
X224673033Y-186854091D02*
X224673033Y-185448407D01*
X221273034Y-185448406D02*
G75*
G03*
X221223549Y-185231529I-499989J1D01*
G01*
X221926323Y-184582951D02*
G75*
G03*
X221223551Y-185231529I-252258J-431700D01*
G01*
X221223550Y-187070969D02*
G75*
G03*
X221273035Y-186854091I-450505J216876D01*
G01*
X221223551Y-187070968D02*
G75*
G03*
X221926323Y-187719548I450513J-216880D01*
G01*
X222178582Y-187651249D02*
G75*
G03*
X221926323Y-187719548I2J-500009D01*
G01*
X221926323Y-184582951D02*
G75*
G03*
X222178581Y-184651250I252261J431710D01*
G01*
X224019744Y-187719547D02*
G75*
G03*
X223767486Y-187651249I-252260J-431713D01*
G01*
X223767487Y-184651249D02*
G75*
G03*
X224019745Y-184582950I-3J500009D01*
G01*
X224722518Y-185231529D02*
G75*
G03*
X224019745Y-184582950I-450514J216879D01*
G01*
X224722520Y-185231530D02*
G75*
G03*
X224673033Y-185448407I450504J-216880D01*
G01*
X224019745Y-187719546D02*
G75*
G03*
X224722518Y-187070969I252258J431700D01*
G01*
X224673016Y-186854092D02*
G75*
G03*
X224722518Y-187070969I500018J42D01*
G01*
X202056369Y-185448407D02*
X202056369Y-186854091D01*
X202961916Y-187651249D02*
X204550820Y-187651249D01*
X204550820Y-184651250D02*
X202961915Y-184651250D01*
X205456367Y-186854091D02*
X205456367Y-185448407D01*
X202056368Y-185448406D02*
G75*
G03*
X202006883Y-185231529I-499989J1D01*
G01*
X202709657Y-184582951D02*
G75*
G03*
X202006885Y-185231529I-252258J-431700D01*
G01*
X202006884Y-187070969D02*
G75*
G03*
X202056369Y-186854091I-450505J216876D01*
G01*
X202006885Y-187070968D02*
G75*
G03*
X202709657Y-187719548I450513J-216880D01*
G01*
X202961916Y-187651249D02*
G75*
G03*
X202709657Y-187719548I2J-500009D01*
G01*
X202709657Y-184582951D02*
G75*
G03*
X202961915Y-184651250I252261J431710D01*
G01*
X204803078Y-187719547D02*
G75*
G03*
X204550820Y-187651249I-252260J-431713D01*
G01*
X204550821Y-184651249D02*
G75*
G03*
X204803079Y-184582950I-3J500009D01*
G01*
X205505852Y-185231529D02*
G75*
G03*
X204803079Y-184582950I-450514J216879D01*
G01*
X205505854Y-185231530D02*
G75*
G03*
X205456367Y-185448407I450504J-216880D01*
G01*
X204803079Y-187719546D02*
G75*
G03*
X205505852Y-187070969I252258J431700D01*
G01*
X205456350Y-186854092D02*
G75*
G03*
X205505852Y-187070969I500018J42D01*
G01*
X182839703Y-185448407D02*
X182839703Y-186854091D01*
X183745250Y-187651249D02*
X185334154Y-187651249D01*
X185334154Y-184651250D02*
X183745249Y-184651250D01*
X186239701Y-186854091D02*
X186239701Y-185448407D01*
X182839702Y-185448406D02*
G75*
G03*
X182790217Y-185231529I-499989J1D01*
G01*
X183492991Y-184582951D02*
G75*
G03*
X182790219Y-185231529I-252258J-431700D01*
G01*
X182790218Y-187070969D02*
G75*
G03*
X182839703Y-186854091I-450505J216876D01*
G01*
X182790219Y-187070968D02*
G75*
G03*
X183492991Y-187719548I450513J-216880D01*
G01*
X183745250Y-187651249D02*
G75*
G03*
X183492991Y-187719548I2J-500009D01*
G01*
X183492991Y-184582951D02*
G75*
G03*
X183745249Y-184651250I252261J431710D01*
G01*
X185586412Y-187719547D02*
G75*
G03*
X185334154Y-187651249I-252260J-431713D01*
G01*
X185334155Y-184651249D02*
G75*
G03*
X185586413Y-184582950I-3J500009D01*
G01*
X186289186Y-185231529D02*
G75*
G03*
X185586413Y-184582950I-450514J216879D01*
G01*
X186289188Y-185231530D02*
G75*
G03*
X186239701Y-185448407I450504J-216880D01*
G01*
X185586413Y-187719546D02*
G75*
G03*
X186289186Y-187070969I252258J431700D01*
G01*
X186239684Y-186854092D02*
G75*
G03*
X186289186Y-187070969I500018J42D01*
G01*
X355789697Y-185448407D02*
X355789697Y-186854091D01*
X356695244Y-187651249D02*
X358284148Y-187651249D01*
X358284148Y-184651250D02*
X356695243Y-184651250D01*
X359189695Y-186854091D02*
X359189695Y-185448407D01*
X355789696Y-185448406D02*
G75*
G03*
X355740211Y-185231529I-499989J1D01*
G01*
X356442985Y-184582951D02*
G75*
G03*
X355740213Y-185231529I-252258J-431700D01*
G01*
X355740212Y-187070969D02*
G75*
G03*
X355789697Y-186854091I-450505J216876D01*
G01*
X355740213Y-187070968D02*
G75*
G03*
X356442985Y-187719548I450513J-216880D01*
G01*
X356695244Y-187651249D02*
G75*
G03*
X356442985Y-187719548I2J-500009D01*
G01*
X356442985Y-184582951D02*
G75*
G03*
X356695243Y-184651250I252261J431710D01*
G01*
X358536406Y-187719547D02*
G75*
G03*
X358284148Y-187651249I-252260J-431713D01*
G01*
X358284149Y-184651249D02*
G75*
G03*
X358536407Y-184582950I-3J500009D01*
G01*
X359239180Y-185231529D02*
G75*
G03*
X358536407Y-184582950I-450514J216879D01*
G01*
X359239182Y-185231530D02*
G75*
G03*
X359189695Y-185448407I450504J-216880D01*
G01*
X358536407Y-187719546D02*
G75*
G03*
X359239180Y-187070969I252258J431700D01*
G01*
X359189678Y-186854092D02*
G75*
G03*
X359239180Y-187070969I500018J42D01*
G01*
M02*
