G04 #@! TF.GenerationSoftware,KiCad,Pcbnew,7.0.5*
G04 #@! TF.CreationDate,2023-07-06T17:45:39-04:00*
G04 #@! TF.ProjectId,keyboard,6b657962-6f61-4726-942e-6b696361645f,rev?*
G04 #@! TF.SameCoordinates,Original*
G04 #@! TF.FileFunction,Soldermask,Bot*
G04 #@! TF.FilePolarity,Negative*
%FSLAX46Y46*%
G04 Gerber Fmt 4.6, Leading zero omitted, Abs format (unit mm)*
G04 Created by KiCad (PCBNEW 7.0.5) date 2023-07-06 17:45:39*
%MOMM*%
%LPD*%
G01*
G04 APERTURE LIST*
%ADD10C,1.750000*%
%ADD11C,3.987800*%
%ADD12C,3.300000*%
%ADD13C,3.048000*%
%ADD14C,0.700000*%
%ADD15O,0.900000X1.700000*%
%ADD16O,0.900000X2.400000*%
%ADD17R,1.700000X1.700000*%
%ADD18O,1.700000X1.700000*%
G04 APERTURE END LIST*
D10*
X186746230Y-257895000D03*
D11*
X191826230Y-257895000D03*
D10*
X196906230Y-257895000D03*
D12*
X195636230Y-255355000D03*
X189286230Y-252815000D03*
D10*
X162658036Y-257895000D03*
D11*
X167738036Y-257895000D03*
D10*
X172818036Y-257895000D03*
D12*
X171548036Y-255355000D03*
X165198036Y-252815000D03*
D10*
X210834424Y-257895000D03*
D11*
X215914424Y-257895000D03*
D10*
X220994424Y-257895000D03*
D12*
X219724424Y-255355000D03*
X213374424Y-252815000D03*
D10*
X165018036Y-200290000D03*
D11*
X170098036Y-200290000D03*
D10*
X175178036Y-200290000D03*
D12*
X173908036Y-197750000D03*
X167558036Y-195210000D03*
D10*
X402853036Y-238705000D03*
D11*
X407933036Y-238705000D03*
D10*
X413013036Y-238705000D03*
D12*
X411743036Y-236165000D03*
X405393036Y-233625000D03*
D10*
X424526068Y-200290000D03*
D11*
X429606068Y-200290000D03*
D10*
X434686068Y-200290000D03*
D12*
X433416068Y-197750000D03*
X427066068Y-195210000D03*
D10*
X167408036Y-219495000D03*
D11*
X172488036Y-219495000D03*
D10*
X177568036Y-219495000D03*
D12*
X176298036Y-216955000D03*
X169948036Y-214415000D03*
D11*
X237621368Y-266150000D03*
D13*
X337633868Y-250910000D03*
X237621368Y-250910000D03*
D11*
X337633868Y-266150000D03*
X189160536Y-246955000D03*
X165348036Y-246955000D03*
D13*
X165348036Y-231715000D03*
X189160536Y-231715000D03*
D11*
X434373036Y-227755000D03*
X410560536Y-227755000D03*
D13*
X410560536Y-212515000D03*
X434373036Y-212515000D03*
X436679286Y-174080000D03*
X412866786Y-174080000D03*
D11*
X436679286Y-189320000D03*
X412866786Y-189320000D03*
D10*
X203268036Y-238715000D03*
D11*
X208348036Y-238715000D03*
D10*
X213428036Y-238715000D03*
D12*
X212158036Y-236175000D03*
X205808036Y-233635000D03*
D10*
X285157320Y-200290000D03*
D11*
X290237320Y-200290000D03*
D10*
X295317320Y-200290000D03*
D12*
X294047320Y-197750000D03*
X287697320Y-195210000D03*
D10*
X222516161Y-238705000D03*
D11*
X227596161Y-238705000D03*
D10*
X232676161Y-238705000D03*
D12*
X231406161Y-236165000D03*
X225056161Y-233625000D03*
D10*
X208239464Y-200290000D03*
D11*
X213319464Y-200290000D03*
D10*
X218399464Y-200290000D03*
D12*
X217129464Y-197750000D03*
X210779464Y-195210000D03*
D10*
X261012411Y-238705000D03*
D11*
X266092411Y-238705000D03*
D10*
X271172411Y-238705000D03*
D12*
X269902411Y-236165000D03*
X263552411Y-233625000D03*
D10*
X429244911Y-238705000D03*
D11*
X434324911Y-238705000D03*
D10*
X439404911Y-238705000D03*
D12*
X438134911Y-236165000D03*
X431784911Y-233625000D03*
D10*
X304386784Y-200290000D03*
D11*
X309466784Y-200290000D03*
D10*
X314546784Y-200290000D03*
D12*
X313276784Y-197750000D03*
X306926784Y-195210000D03*
D10*
X160243036Y-181071250D03*
D11*
X165323036Y-181071250D03*
D10*
X170403036Y-181071250D03*
D12*
X169133036Y-178531250D03*
X162783036Y-175991250D03*
D10*
X265927856Y-200290000D03*
D11*
X271007856Y-200290000D03*
D10*
X276087856Y-200290000D03*
D12*
X274817856Y-197750000D03*
X268467856Y-195210000D03*
D10*
X282547618Y-257895000D03*
D11*
X287627618Y-257895000D03*
D10*
X292707618Y-257895000D03*
D12*
X291437618Y-255355000D03*
X285087618Y-252815000D03*
D10*
X429305536Y-161852500D03*
D11*
X434385536Y-161852500D03*
D10*
X439465536Y-161852500D03*
D12*
X438195536Y-159312500D03*
X431845536Y-156772500D03*
D10*
X213052922Y-219495000D03*
D11*
X218132922Y-219495000D03*
D10*
X223212922Y-219495000D03*
D12*
X221942922Y-216955000D03*
X215592922Y-214415000D03*
D10*
X400534104Y-200290000D03*
D11*
X405614104Y-200290000D03*
D10*
X410694104Y-200290000D03*
D12*
X409424104Y-197750000D03*
X403074104Y-195210000D03*
D10*
X390530950Y-257895000D03*
D11*
X395610950Y-257895000D03*
D10*
X400690950Y-257895000D03*
D12*
X399420950Y-255355000D03*
X393070950Y-252815000D03*
D10*
X351879562Y-257895000D03*
D11*
X356959562Y-257895000D03*
D10*
X362039562Y-257895000D03*
D12*
X360769562Y-255355000D03*
X354419562Y-252815000D03*
D10*
X246698392Y-200290000D03*
D11*
X251778392Y-200290000D03*
D10*
X256858392Y-200290000D03*
D12*
X255588392Y-197750000D03*
X249238392Y-195210000D03*
D10*
X386308036Y-219495000D03*
D11*
X391388036Y-219495000D03*
D10*
X396468036Y-219495000D03*
D12*
X395198036Y-216955000D03*
X388848036Y-214415000D03*
D10*
X376501161Y-238705000D03*
D11*
X381581161Y-238705000D03*
D10*
X386661161Y-238705000D03*
D12*
X385391161Y-236165000D03*
X379041161Y-233625000D03*
D10*
X189010000Y-200290000D03*
D11*
X194090000Y-200290000D03*
D10*
X199170000Y-200290000D03*
D12*
X197900000Y-197750000D03*
X191550000Y-195210000D03*
D10*
X410086786Y-161852500D03*
D11*
X415166786Y-161852500D03*
D10*
X420246786Y-161852500D03*
D12*
X418976786Y-159312500D03*
X412626786Y-156772500D03*
D10*
X390868036Y-181071250D03*
D11*
X395948036Y-181071250D03*
D10*
X401028036Y-181071250D03*
D12*
X399758036Y-178531250D03*
X393408036Y-175991250D03*
D10*
X448518036Y-200290000D03*
D11*
X453598036Y-200290000D03*
D10*
X458678036Y-200290000D03*
D12*
X457408036Y-197750000D03*
X451058036Y-195210000D03*
D10*
X448508036Y-219505000D03*
D11*
X453588036Y-219505000D03*
D10*
X458668036Y-219505000D03*
D12*
X457398036Y-216965000D03*
X451048036Y-214425000D03*
D10*
X362075176Y-200290000D03*
D11*
X367155176Y-200290000D03*
D10*
X372235176Y-200290000D03*
D12*
X370965176Y-197750000D03*
X364615176Y-195210000D03*
D10*
X342845712Y-200290000D03*
D11*
X347925712Y-200290000D03*
D10*
X353005712Y-200290000D03*
D12*
X351735712Y-197750000D03*
X345385712Y-195210000D03*
D10*
X299508661Y-238705000D03*
D11*
X304588661Y-238705000D03*
D10*
X309668661Y-238705000D03*
D12*
X308398661Y-236165000D03*
X302048661Y-233625000D03*
D10*
X371649286Y-181071250D03*
D11*
X376729286Y-181071250D03*
D10*
X381809286Y-181071250D03*
D12*
X380539286Y-178531250D03*
X374189286Y-175991250D03*
D10*
X318756786Y-238705000D03*
D11*
X323836786Y-238705000D03*
D10*
X328916786Y-238705000D03*
D12*
X327646786Y-236165000D03*
X321296786Y-233625000D03*
D10*
X338004911Y-238705000D03*
D11*
X343084911Y-238705000D03*
D10*
X348164911Y-238705000D03*
D12*
X346894911Y-236165000D03*
X340544911Y-233625000D03*
D10*
X172174286Y-238700000D03*
D11*
X177254286Y-238700000D03*
D10*
X182334286Y-238700000D03*
D12*
X181064286Y-236160000D03*
X174714286Y-233620000D03*
D10*
X409856644Y-257895000D03*
D11*
X414936644Y-257895000D03*
D10*
X420016644Y-257895000D03*
D12*
X418746644Y-255355000D03*
X412396644Y-252815000D03*
D10*
X381304640Y-200290000D03*
D11*
X386384640Y-200290000D03*
D10*
X391464640Y-200290000D03*
D12*
X390194640Y-197750000D03*
X383844640Y-195210000D03*
D10*
X328556330Y-219495000D03*
D11*
X333636330Y-219495000D03*
D10*
X338716330Y-219495000D03*
D12*
X337446330Y-216955000D03*
X331096330Y-214415000D03*
D10*
X309305762Y-219495000D03*
D11*
X314385762Y-219495000D03*
D10*
X319465762Y-219495000D03*
D12*
X318195762Y-216955000D03*
X311845762Y-214415000D03*
D10*
X323616248Y-200290000D03*
D11*
X328696248Y-200290000D03*
D10*
X333776248Y-200290000D03*
D12*
X332506248Y-197750000D03*
X326156248Y-195210000D03*
D10*
X448508036Y-181070000D03*
D11*
X453588036Y-181070000D03*
D10*
X458668036Y-181070000D03*
D12*
X457398036Y-178530000D03*
X451048036Y-175990000D03*
D10*
X290055194Y-219495000D03*
D11*
X295135194Y-219495000D03*
D10*
X300215194Y-219495000D03*
D12*
X298945194Y-216955000D03*
X292595194Y-214415000D03*
D10*
X357253036Y-238705000D03*
D11*
X362333036Y-238705000D03*
D10*
X367413036Y-238705000D03*
D12*
X366143036Y-236165000D03*
X359793036Y-233625000D03*
D10*
X270804626Y-219495000D03*
D11*
X275884626Y-219495000D03*
D10*
X280964626Y-219495000D03*
D12*
X279694626Y-216955000D03*
X273344626Y-214415000D03*
D10*
X371205256Y-257895000D03*
D11*
X376285256Y-257895000D03*
D10*
X381365256Y-257895000D03*
D12*
X380095256Y-255355000D03*
X373745256Y-252815000D03*
D10*
X390868036Y-161852500D03*
D11*
X395948036Y-161852500D03*
D10*
X401028036Y-161852500D03*
D12*
X399758036Y-159312500D03*
X393408036Y-156772500D03*
D10*
X371649286Y-161852500D03*
D11*
X376729286Y-161852500D03*
D10*
X381809286Y-161852500D03*
D12*
X380539286Y-159312500D03*
X374189286Y-156772500D03*
D10*
X352430536Y-161852500D03*
D11*
X357510536Y-161852500D03*
D10*
X362590536Y-161852500D03*
D12*
X361320536Y-159312500D03*
X354970536Y-156772500D03*
D10*
X333211786Y-161852500D03*
D11*
X338291786Y-161852500D03*
D10*
X343371786Y-161852500D03*
D12*
X342101786Y-159312500D03*
X335751786Y-156772500D03*
D10*
X313993036Y-161852500D03*
D11*
X319073036Y-161852500D03*
D10*
X324153036Y-161852500D03*
D12*
X322883036Y-159312500D03*
X316533036Y-156772500D03*
D10*
X294774286Y-161852500D03*
D11*
X299854286Y-161852500D03*
D10*
X304934286Y-161852500D03*
D12*
X303664286Y-159312500D03*
X297314286Y-156772500D03*
D10*
X275555536Y-161852500D03*
D11*
X280635536Y-161852500D03*
D10*
X285715536Y-161852500D03*
D12*
X284445536Y-159312500D03*
X278095536Y-156772500D03*
D10*
X256336786Y-161852500D03*
D11*
X261416786Y-161852500D03*
D10*
X266496786Y-161852500D03*
D12*
X265226786Y-159312500D03*
X258876786Y-156772500D03*
D10*
X237118036Y-161852500D03*
D11*
X242198036Y-161852500D03*
D10*
X247278036Y-161852500D03*
D12*
X246008036Y-159312500D03*
X239658036Y-156772500D03*
D10*
X217899286Y-161852500D03*
D11*
X222979286Y-161852500D03*
D10*
X228059286Y-161852500D03*
D12*
X226789286Y-159312500D03*
X220439286Y-156772500D03*
D10*
X198680536Y-161852500D03*
D11*
X203760536Y-161852500D03*
D10*
X208840536Y-161852500D03*
D12*
X207570536Y-159312500D03*
X201220536Y-156772500D03*
D10*
X179461786Y-161852500D03*
D11*
X184541786Y-161852500D03*
D10*
X189621786Y-161852500D03*
D12*
X188351786Y-159312500D03*
X182001786Y-156772500D03*
D10*
X251554058Y-219495000D03*
D11*
X256634058Y-219495000D03*
D10*
X261714058Y-219495000D03*
D12*
X260444058Y-216955000D03*
X254094058Y-214415000D03*
D10*
X160243036Y-161852500D03*
D11*
X165323036Y-161852500D03*
D10*
X170403036Y-161852500D03*
D12*
X169133036Y-159312500D03*
X162783036Y-156772500D03*
D10*
X417386786Y-219500000D03*
D11*
X422466786Y-219500000D03*
D10*
X427546786Y-219500000D03*
D12*
X426276786Y-216960000D03*
X419926786Y-214420000D03*
D10*
X448493036Y-238705000D03*
D11*
X453573036Y-238705000D03*
D10*
X458653036Y-238705000D03*
D12*
X457383036Y-236165000D03*
X451033036Y-233625000D03*
D10*
X227468928Y-200290000D03*
D11*
X232548928Y-200290000D03*
D10*
X237628928Y-200290000D03*
D12*
X236358928Y-197750000D03*
X230008928Y-195210000D03*
D10*
X448524286Y-161852500D03*
D11*
X453604286Y-161852500D03*
D10*
X458684286Y-161852500D03*
D12*
X457414286Y-159312500D03*
X451064286Y-156772500D03*
D10*
X232303490Y-219495000D03*
D11*
X237383490Y-219495000D03*
D10*
X242463490Y-219495000D03*
D12*
X241193490Y-216955000D03*
X234843490Y-214415000D03*
D10*
X367057466Y-219495000D03*
D11*
X372137466Y-219495000D03*
D10*
X377217466Y-219495000D03*
D12*
X375947466Y-216955000D03*
X369597466Y-214415000D03*
D10*
X241764286Y-238705000D03*
D11*
X246844286Y-238705000D03*
D10*
X251924286Y-238705000D03*
D12*
X250654286Y-236165000D03*
X244304286Y-233625000D03*
D10*
X419693036Y-181065000D03*
D11*
X424773036Y-181065000D03*
D10*
X429853036Y-181065000D03*
D12*
X428583036Y-178525000D03*
X422233036Y-175985000D03*
D10*
X280260536Y-238705000D03*
D11*
X285340536Y-238705000D03*
D10*
X290420536Y-238705000D03*
D12*
X289150536Y-236165000D03*
X282800536Y-233625000D03*
D10*
X193802354Y-219495000D03*
D11*
X198882354Y-219495000D03*
D10*
X203962354Y-219495000D03*
D12*
X202692354Y-216955000D03*
X196342354Y-214415000D03*
D10*
X333211786Y-181071250D03*
D11*
X338291786Y-181071250D03*
D10*
X343371786Y-181071250D03*
D12*
X342101786Y-178531250D03*
X335751786Y-175991250D03*
D10*
X313993036Y-181071250D03*
D11*
X319073036Y-181071250D03*
D10*
X324153036Y-181071250D03*
D12*
X322883036Y-178531250D03*
X316533036Y-175991250D03*
D10*
X294774286Y-181071250D03*
D11*
X299854286Y-181071250D03*
D10*
X304934286Y-181071250D03*
D12*
X303664286Y-178531250D03*
X297314286Y-175991250D03*
D10*
X275555536Y-181071250D03*
D11*
X280635536Y-181071250D03*
D10*
X285715536Y-181071250D03*
D12*
X284445536Y-178531250D03*
X278095536Y-175991250D03*
D10*
X256336786Y-181071250D03*
D11*
X261416786Y-181071250D03*
D10*
X266496786Y-181071250D03*
D12*
X265226786Y-178531250D03*
X258876786Y-175991250D03*
D10*
X237118036Y-181071250D03*
D11*
X242198036Y-181071250D03*
D10*
X247278036Y-181071250D03*
D12*
X246008036Y-178531250D03*
X239658036Y-175991250D03*
D10*
X217899286Y-181071250D03*
D11*
X222979286Y-181071250D03*
D10*
X228059286Y-181071250D03*
D12*
X226789286Y-178531250D03*
X220439286Y-175991250D03*
D10*
X198680536Y-181071250D03*
D11*
X203760536Y-181071250D03*
D10*
X208840536Y-181071250D03*
D12*
X207570536Y-178531250D03*
X201220536Y-175991250D03*
D10*
X179461786Y-181071250D03*
D11*
X184541786Y-181071250D03*
D10*
X189621786Y-181071250D03*
D12*
X188351786Y-178531250D03*
X182001786Y-175991250D03*
D10*
X352430536Y-181071250D03*
D11*
X357510536Y-181071250D03*
D10*
X362590536Y-181071250D03*
D12*
X361320536Y-178531250D03*
X354970536Y-175991250D03*
D10*
X347806898Y-219495000D03*
D11*
X352886898Y-219495000D03*
D10*
X357966898Y-219495000D03*
D12*
X356696898Y-216955000D03*
X350346898Y-214415000D03*
D10*
X429182338Y-257895000D03*
D11*
X434262338Y-257895000D03*
D10*
X439342338Y-257895000D03*
D12*
X438072338Y-255355000D03*
X431722338Y-252815000D03*
D10*
X448508036Y-257895000D03*
D11*
X453588036Y-257895000D03*
D10*
X458668036Y-257895000D03*
D12*
X457398036Y-255355000D03*
X451048036Y-252815000D03*
D14*
X137364286Y-145862500D03*
X136514286Y-145862500D03*
X135664286Y-145862500D03*
X134814286Y-145862500D03*
X133964286Y-145862500D03*
X133114286Y-145862500D03*
X132264286Y-145862500D03*
X131414286Y-145862500D03*
X131414286Y-144512500D03*
X132264286Y-144512500D03*
X133114286Y-144512500D03*
X133964286Y-144512500D03*
X134814286Y-144512500D03*
X135664286Y-144512500D03*
X136514286Y-144512500D03*
X137364286Y-144512500D03*
D15*
X130064286Y-141502500D03*
X138714286Y-141502500D03*
D16*
X130064286Y-144882500D03*
X138714286Y-144882500D03*
D17*
X141652856Y-230265000D03*
D18*
X141652856Y-232805000D03*
X139112856Y-230265000D03*
X139112856Y-232805000D03*
X136572856Y-230265000D03*
X136572856Y-232805000D03*
M02*
