M48
; DRILL file {KiCad 7.0.5} date Thu Jul  6 17:45:54 2023
; FORMAT={-:-/ absolute / inch / decimal}
; #@! TF.CreationDate,2023-07-06T17:45:54-04:00
; #@! TF.GenerationSoftware,Kicad,Pcbnew,7.0.5
; #@! TF.FileFunction,Plated,1,2,PTH
FMAT,2
INCH
; #@! TA.AperFunction,Plated,PTH,ViaDrill
T1C0.0157
; #@! TA.AperFunction,Plated,PTH,ComponentDrill
T2C0.0157
; #@! TA.AperFunction,Plated,PTH,ComponentDrill
T3C0.0236
; #@! TA.AperFunction,Plated,PTH,ComponentDrill
T4C0.0394
; #@! TA.AperFunction,Plated,PTH,ComponentDrill
T5C0.1181
%
G90
G05
T1
X4.9012Y-6.5133
X4.9012Y-6.5704
X4.9012Y-6.6156
X4.9297Y-8.3658
X4.9307Y-8.4228
X4.971Y-8.6176
X4.971Y-8.717
X4.973Y-7.6206
X4.975Y-7.6855
X4.9779Y-7.7318
X5.0222Y-7.7781
X5.288Y-9.1078
X5.2909Y-9.2032
X5.3204Y-8.7023
X5.3528Y-8.6737
X5.3588Y-5.7997
X5.4405Y-6.1609
X5.4987Y-6.5704
X5.4987Y-6.5133
X5.538Y-6.5704
X5.5381Y-6.5133
X5.5774Y-6.5704
X5.5774Y-6.5133
X5.6167Y-6.5704
X5.6168Y-6.5133
X5.6561Y-6.5133
X5.6561Y-6.5704
X5.6679Y-8.2997
X5.6945Y-8.3312
X5.6955Y-6.5133
X5.6955Y-6.5704
X5.7348Y-6.5133
X5.7348Y-6.5704
X5.7671Y-8.2326
X5.7742Y-6.5133
X5.7742Y-6.5704
X5.787Y-8.3735
X5.8214Y-6.5133
X5.8214Y-6.5704
X5.8733Y-6.5704
X5.874Y-6.5133
X5.9127Y-6.5703
X5.9133Y-6.5133
X5.952Y-6.5704
X5.9527Y-6.5133
X5.9914Y-6.5704
X5.992Y-6.5133
X6.021Y-8.597
X6.0307Y-6.5058
X6.0307Y-6.5704
X6.067Y-8.5955
X6.0696Y-6.5112
X6.0698Y-6.5745
X6.0931Y-6.5428
X6.1964Y-6.5428
X6.6167Y-6.4906
X6.786Y-7.4601
X6.787Y-7.5812
X6.8136Y-6.0439
X6.8214Y-5.9868
X6.8431Y-7.4631
X6.8431Y-7.5832
X6.8923Y-6.2741
X6.9002Y-7.0379
X6.9809Y-8.907
X7.0429Y-9.1393
X7.0498Y-8.9375
X7.1128Y-7.7968
X7.1177Y-9.0665
X7.1187Y-9.0025
X7.1307Y-8.9377
X7.1364Y-9.8666
X7.2742Y-8.7318
X7.4513Y-9.3086
X7.4592Y-7.3588
X7.4612Y-7.4906
X7.5596Y-5.9868
X7.5596Y-6.0439
X7.5862Y-7.1471
X7.6826Y-6.4168
X7.7466Y-10.3824
X7.7466Y-10.467
X7.8421Y-9.8991
X8.0311Y-8.8706
X8.0311Y-8.9719
X8.0744Y-7.8725
X8.1423Y-8.6914
X8.2368Y-7.3568
X8.2368Y-7.4847
X8.3096Y-6.0439
X8.3106Y-5.9868
X8.35Y-7.1727
X8.3746Y-6.4208
X8.4809Y-9.1471
X8.6925Y-10.3814
X8.6935Y-10.4906
X8.7791Y-8.8706
X8.7811Y-8.969
X8.8263Y-7.7899
X8.971Y-7.3568
X8.972Y-7.4749
X8.9809Y-8.5448
X9.0675Y-6.0439
X9.0695Y-5.9868
X9.1029Y-6.405
X9.1059Y-7.154
X9.161Y-9.8205
X9.2565Y-9.4296
X9.5547Y-8.8706
X9.5557Y-8.9719
X9.5744Y-7.8804
X9.7004Y-8.7013
X9.7289Y-7.3597
X9.7319Y-7.4788
X9.8254Y-6.0439
X9.8263Y-5.9868
X9.8933Y-10.3824
X9.8943Y-10.47
X9.9248Y-7.029
X9.9356Y-6.2781
X10.0045Y-9.1767
X10.3096Y-8.8696
X10.3106Y-8.968
X10.3204Y-7.7899
X10.4878Y-8.5477
X10.4956Y-7.3597
X10.4956Y-7.4503
X10.5832Y-5.9868
X10.5832Y-6.0439
X10.658Y-10.3794
X10.659Y-10.4709
X10.6836Y-6.2682
X10.6886Y-7.0251
X10.6984Y-9.0871
X11.0606Y-8.8735
X11.0606Y-8.968
X11.0842Y-7.781
X11.2348Y-7.4847
X11.2397Y-7.3597
X11.2693Y-8.5507
X11.3382Y-5.9868
X11.3382Y-6.0439
X11.4523Y-6.281
X11.4632Y-7.032
X11.5055Y-10.3814
X11.5065Y-10.4808
X11.5744Y-9.9355
X11.6482Y-9.3647
X11.8076Y-7.782
X11.8086Y-8.8716
X11.8096Y-8.9828
X11.9819Y-7.4562
X11.9828Y-7.3588
X12.038Y-8.531
X12.0941Y-5.9868
X12.0941Y-6.0439
X12.223Y-6.2731
X12.2466Y-7.0714
X12.2781Y-9.159
X12.3844Y-10.3804
X12.3864Y-10.4769
X12.5793Y-8.8706
X12.5813Y-8.9936
X12.5872Y-7.782
X12.7447Y-7.4926
X12.7456Y-7.3588
X12.7801Y-8.5536
X12.851Y-6.0439
X12.8519Y-5.9868
X12.9838Y-7.0251
X12.9848Y-6.2781
X12.9956Y-9.093
X13.1216Y-10.3814
X13.1236Y-10.4788
X13.3273Y-8.8716
X13.3283Y-8.965
X13.3706Y-7.782
X13.5163Y-7.3583
X13.5163Y-7.4631
X13.5567Y-8.5389
X13.6059Y-5.9868
X13.6078Y-6.0439
X13.6699Y-9.0714
X13.7201Y-6.2721
X13.723Y-7.0271
X14.0852Y-9.0014
X14.0872Y-8.8706
X14.097Y-7.7928
X14.2496Y-10.3814
X14.2515Y-10.4611
X14.2535Y-7.3627
X14.2535Y-7.4936
X14.3254Y-8.5458
X14.3667Y-5.9868
X14.3667Y-6.0439
X14.4258Y-9.8322
X14.4966Y-6.2771
X14.5065Y-7.0487
X14.6964Y-9.2958
X14.8647Y-8.8716
X14.8657Y-8.9729
X14.8825Y-7.8007
X14.9996Y-10.3824
X15.0006Y-10.4906
X15.0419Y-7.3558
X15.0419Y-7.4651
X15.0695Y-8.5379
X15.1315Y-5.9868
X15.1315Y-6.0439
X15.1374Y-9.8981
X15.2407Y-6.2692
X15.2712Y-7.0281
X15.3145Y-9.1826
X15.3263Y-9.4375
X15.6029Y-8.8716
X15.6039Y-8.9926
X15.6305Y-7.7751
X15.7683Y-10.3814
X15.7693Y-10.5093
X15.788Y-7.3588
X15.7909Y-7.466
X15.8076Y-9.845
X15.8451Y-8.5379
X15.8795Y-5.9868
X15.8795Y-6.0439
X15.9917Y-6.2692
X16.0429Y-7.0261
X16.4258Y-7.8145
X16.473Y-9.3027
X16.5271Y-10.3824
X16.5271Y-10.4808
X16.6216Y-9.8656
X16.6325Y-5.9868
X16.6325Y-6.0439
X16.7683Y-6.2682
X16.8204Y-8.8716
X16.8224Y-8.9857
X16.9326Y-7.3617
X16.9356Y-7.4847
X17.0685Y-8.5605
X17.222Y-7.0359
X17.2722Y-10.3844
X17.2732Y-10.5192
X17.3451Y-7.7987
X17.3913Y-5.9868
X17.3916Y-6.0439
X17.4218Y-9.8548
X17.4996Y-9.3145
X17.5143Y-6.2731
X17.5508Y-6.7318
X17.5754Y-7.2899
X18.0311Y-8.9729
X18.034Y-8.8706
X18.037Y-10.3814
X18.037Y-10.4906
X18.1502Y-9.4109
X18.1502Y-9.9385
X18.2417Y-7.7721
X18.2447Y-8.5192
X18.2525Y-6.2633
X18.2565Y-7.0094
X18.2584Y-10.159
X18.2584Y-10.3007
X18.2732Y-8.6599
X18.2742Y-8.8027
T2
X5.1738Y-5.6895
X5.1738Y-5.7426
X5.2073Y-5.6895
X5.2073Y-5.7426
X5.2407Y-5.6895
X5.2407Y-5.7426
X5.2742Y-5.6895
X5.2742Y-5.7426
X5.3076Y-5.6895
X5.3076Y-5.7426
X5.3411Y-5.6895
X5.3411Y-5.7426
X5.3746Y-5.6895
X5.3746Y-5.7426
X5.408Y-5.6895
X5.408Y-5.7426
T4
X5.3769Y-9.0656
X5.3769Y-9.1656
X5.4769Y-9.0656
X5.4769Y-9.1656
X5.5769Y-9.0656
X5.5769Y-9.1656
T5
X6.4088Y-6.1721
X6.4088Y-6.9288
X6.5039Y-9.9533
X6.5968Y-7.6854
X6.6588Y-6.2721
X6.6588Y-7.0288
X6.6909Y-8.4415
X6.7539Y-10.0533
X6.8468Y-7.7854
X6.8785Y-9.1976
X6.9409Y-8.5415
X7.1285Y-9.2976
X7.1654Y-6.1721
X7.1654Y-6.9288
X7.4154Y-6.2721
X7.4154Y-7.0288
X7.4522Y-9.9533
X7.5413Y-7.6854
X7.7022Y-10.0533
X7.73Y-8.4415
X7.7913Y-7.7854
X7.9221Y-6.1721
X7.9221Y-6.9288
X7.98Y-8.5415
X8.1027Y-9.1982
X8.1721Y-6.2721
X8.1721Y-7.0288
X8.2984Y-7.6854
X8.3527Y-9.2982
X8.4006Y-9.9533
X8.4879Y-8.4415
X8.5484Y-7.7854
X8.6506Y-10.0533
X8.6787Y-6.1721
X8.6787Y-6.9288
X8.7379Y-8.5415
X8.8605Y-9.1978
X8.9287Y-6.2721
X8.9287Y-7.0288
X9.0555Y-7.6854
X9.1105Y-9.2978
X9.2458Y-8.4415
X9.3055Y-7.7854
X9.4354Y-6.1721
X9.4354Y-6.9288
X9.4958Y-8.5415
X9.6183Y-9.1978
X9.6854Y-6.2721
X9.6854Y-7.0288
X9.8125Y-7.6854
X9.8683Y-9.2978
X10.0037Y-8.4415
X10.0625Y-7.7854
X10.192Y-6.1721
X10.192Y-6.9288
X10.2537Y-8.5415
X10.3761Y-9.1978
X10.442Y-6.2721
X10.442Y-7.0288
X10.5696Y-7.6854
X10.6261Y-9.2978
X10.7616Y-8.4415
X10.8196Y-7.7854
X10.9486Y-6.1721
X10.9486Y-6.9288
X11.0116Y-8.5415
X11.1339Y-9.1978
X11.1986Y-6.2721
X11.1986Y-7.0288
X11.2239Y-9.9533
X11.3267Y-7.6854
X11.3839Y-9.2978
X11.4739Y-10.0533
X11.5195Y-8.4415
X11.5767Y-7.7854
X11.7053Y-6.1721
X11.7053Y-6.9288
X11.7695Y-8.5415
X11.8917Y-9.1978
X11.9553Y-6.2721
X11.9553Y-7.0288
X12.0837Y-7.6854
X12.1417Y-9.2978
X12.2774Y-8.4415
X12.3337Y-7.7854
X12.4619Y-6.1721
X12.4619Y-6.9288
X12.5274Y-8.5415
X12.6495Y-9.1978
X12.7119Y-6.2721
X12.7119Y-7.0288
X12.8408Y-7.6854
X12.8995Y-9.2978
X13.0353Y-8.4415
X13.0908Y-7.7854
X13.2186Y-6.1721
X13.2186Y-6.9288
X13.2853Y-8.5415
X13.4073Y-9.1978
X13.4686Y-6.2721
X13.4686Y-7.0288
X13.5979Y-7.6854
X13.6573Y-9.2978
X13.7932Y-8.4415
X13.8479Y-7.7854
X13.9535Y-9.9533
X13.9752Y-6.1721
X13.9752Y-6.9288
X14.0432Y-8.5415
X14.1651Y-9.1978
X14.2035Y-10.0533
X14.2252Y-6.2721
X14.2252Y-7.0288
X14.3549Y-7.6854
X14.4151Y-9.2978
X14.5511Y-8.4415
X14.6049Y-7.7854
X14.7144Y-9.9533
X14.7319Y-6.1721
X14.7319Y-6.9288
X14.8011Y-8.5415
X14.9229Y-9.1978
X14.9644Y-10.0533
X14.9819Y-6.2721
X14.9819Y-7.0288
X15.112Y-7.6854
X15.1729Y-9.2978
X15.309Y-8.4415
X15.362Y-7.7854
X15.4752Y-9.9533
X15.4885Y-6.1721
X15.4885Y-6.9288
X15.559Y-8.5415
X15.7252Y-10.0533
X15.7385Y-6.2721
X15.7385Y-7.0288
X15.8691Y-7.6854
X15.9604Y-9.1978
X16.1191Y-7.7854
X16.2104Y-9.2978
X16.2361Y-9.9533
X16.2451Y-6.1721
X16.4861Y-10.0533
X16.4951Y-6.2721
X16.5326Y-8.4417
X16.6233Y-6.9285
X16.7826Y-8.5417
X16.8136Y-7.6854
X16.8733Y-7.0285
X16.9969Y-9.9533
X16.9994Y-9.1978
X17.0018Y-6.1721
X17.0636Y-7.7854
X17.2469Y-10.0533
X17.2494Y-9.2978
X17.2518Y-6.2721
X17.7572Y-9.1978
X17.7578Y-6.9287
X17.7578Y-8.4419
X17.7578Y-9.9533
X17.7582Y-7.6854
X17.7584Y-6.1721
X18.0072Y-9.2978
X18.0078Y-7.0287
X18.0078Y-8.5419
X18.0078Y-10.0533
X18.0082Y-7.7854
X18.0084Y-6.2721
T3
G00X5.1206Y-5.5867
M15
G01X5.1206Y-5.5552
M16
G05
G00X5.1206Y-5.7336
M15
G01X5.1206Y-5.6745
M16
G05
G00X5.4612Y-5.5867
M15
G01X5.4612Y-5.5552
M16
G05
G00X5.4612Y-5.7336
M15
G01X5.4612Y-5.6745
M16
G05
T0
M30
